<?xml version="1.0" standalone="no"?>
<!DOCTYPE svg PUBLIC "-//W3C//DTD SVG 20010904//EN"
 "http://www.w3.org/TR/2001/REC-SVG-20010904/DTD/svg10.dtd">
<svg version="1.0" xmlns="http://www.w3.org/2000/svg"
 width="524.000000pt" height="524.000000pt" viewBox="0 0 524.000000 524.000000"
 preserveAspectRatio="xMidYMid meet">
<metadata>
Created by potrace 1.11, written by Peter Selinger 2001-2013
</metadata>
<g transform="translate(0.000000,524.000000) scale(0.100000,-0.100000)"
fill="#000000" stroke="none">
<path d="M2442 5181 c48 -57 72 -136 65 -216 -10 -107 -71 -231 -128 -260 -27
-14 -33 -15 -52 -2 -21 14 -22 22 -22 138 0 113 -2 127 -23 159 -23 34 -23 34
-18 7 9 -40 -10 -95 -55 -158 -93 -130 -109 -199 -68 -282 12 -23 74 -94 138
-157 65 -64 125 -132 135 -154 16 -33 48 -149 43 -152 -1 0 -51 -12 -110 -27
l-109 -27 -28 20 c-16 11 -40 34 -55 51 -14 18 -28 29 -31 27 -4 -5 5 -52 21
-105 6 -18 3 -23 -9 -23 -25 0 -116 -48 -163 -86 -40 -33 -42 -33 -62 -16 -18
15 -19 22 -11 57 13 54 12 182 -1 247 -28 135 -129 285 -252 372 -143 101
-257 139 -469 155 -219 17 -307 55 -362 156 -15 29 -16 26 -10 -70 13 -228 63
-472 129 -633 128 -314 436 -588 667 -593 l59 -2 -18 -26 c-45 -69 -222 -371
-290 -496 -34 -60 -86 -162 -118 -225 l-57 -115 68 66 c166 159 364 251 616
286 143 20 226 11 325 -37 162 -80 298 -299 353 -570 35 -179 37 -211 8 -245
-44 -52 -78 -107 -78 -126 0 -21 70 -66 118 -75 18 -4 32 -9 32 -13 0 -17 -75
-81 -95 -81 -37 0 -120 83 -157 157 -29 60 -32 75 -36 182 -4 128 1 118 -92
192 -75 59 -161 114 -246 157 l-82 41 -73 -51 c-41 -27 -103 -74 -139 -103
-74 -61 -206 -192 -199 -198 20 -19 381 -145 540 -189 l47 -13 -179 -165 c-98
-91 -179 -168 -179 -171 0 -3 33 -28 73 -54 431 -285 726 -828 832 -1537 8
-54 16 -117 16 -140 1 -34 3 -28 10 27 94 764 394 1350 841 1644 l87 58 -152
141 c-83 77 -165 154 -181 170 l-28 31 43 11 c150 37 539 175 539 190 0 11
-153 159 -223 215 -32 26 -87 66 -124 90 -57 38 -69 42 -92 34 -81 -31 -287
-164 -357 -231 -30 -28 -31 -33 -37 -136 -4 -59 -11 -124 -17 -144 -15 -53
-86 -155 -128 -183 -52 -35 -74 -32 -117 17 l-36 43 46 11 c118 31 133 78 54
168 -50 57 -52 75 -20 240 61 314 186 522 367 607 91 44 168 54 292 40 253
-29 479 -131 637 -286 36 -35 65 -62 65 -59 0 14 -169 336 -246 469 -132 228
-174 307 -169 315 3 4 -6 15 -20 24 -40 26 -31 43 22 45 136 5 278 86 433 247
178 185 269 374 321 662 11 64 25 124 29 133 11 19 26 279 17 279 -4 0 -13
-15 -21 -33 -35 -86 -146 -132 -351 -148 -146 -11 -226 -27 -317 -64 -197 -80
-365 -267 -408 -454 -8 -34 -11 -98 -8 -180 6 -158 0 -168 -76 -111 -70 52
-124 78 -188 89 -29 5 -80 19 -112 30 -33 12 -67 21 -78 21 -25 0 -23 6 20 56
21 23 53 70 70 102 30 57 32 65 32 173 1 118 13 173 47 211 l18 21 -30 -16
c-37 -19 -68 -52 -128 -139 -60 -85 -138 -134 -176 -109 -18 11 -2 41 55 102
51 56 64 97 64 207 0 94 14 138 56 172 l29 23 -56 -6 c-75 -7 -149 -46 -196
-103 -82 -100 -109 -124 -142 -124 -17 0 -31 2 -31 4 0 2 7 22 14 45 53 147
11 333 -102 453 -59 63 -100 87 -50 29z m-1512 -574 c25 -53 76 -74 204 -82
130 -8 223 -36 302 -91 93 -63 128 -126 144 -252 6 -42 13 -92 16 -109 6 -29
4 -33 -16 -33 -13 0 -53 16 -89 37 -44 24 -61 30 -50 17 9 -10 84 -99 168
-197 152 -178 153 -178 135 -200 -11 -12 -20 -24 -21 -25 -1 -2 -61 40 -133
94 -124 92 -132 99 -126 126 5 26 0 32 -64 78 -85 62 -185 169 -248 265 -26
40 -53 80 -59 91 -35 52 21 -65 87 -181 156 -279 135 -254 277 -348 71 -46
154 -99 186 -118 31 -18 57 -37 57 -42 0 -64 -352 138 -541 311 -81 74 -142
195 -194 387 -28 104 -65 305 -56 305 3 0 13 -15 21 -33z m3445 -121 c-32
-158 -76 -299 -125 -397 -48 -95 -154 -197 -314 -304 -144 -96 -302 -173 -319
-156 -14 15 -19 11 128 101 160 97 235 158 268 215 76 130 207 370 207 379 0
6 -21 -20 -46 -58 -98 -150 -193 -251 -298 -315 -30 -19 -37 -29 -34 -50 1
-14 -2 -32 -6 -40 -5 -7 -63 -53 -130 -102 l-120 -90 -18 23 c-10 13 -18 25
-18 28 1 3 74 91 164 195 90 105 163 191 162 192 -1 2 -31 -13 -67 -32 -72
-39 -99 -44 -99 -17 1 48 30 212 43 244 20 48 80 113 134 145 81 47 144 65
281 77 144 14 168 23 207 83 11 17 21 25 23 18 2 -7 -9 -69 -23 -139z m-2150
-467 c162 -166 433 -299 765 -373 120 -26 406 -69 545 -81 94 -8 116 -12 124
-21 3 -4 -21 -4 -54 0 -33 3 -134 13 -225 21 -518 46 -875 171 -1107 388 -34
33 -63 55 -63 49 0 -17 133 -136 205 -184 253 -167 528 -239 1050 -277 l110
-8 -150 -2 c-556 -5 -1026 178 -1233 481 -18 26 -32 49 -32 52 0 15 20 2 65
-45z m-101 -737 c3 -4 -8 -13 -25 -19 -23 -9 -29 -9 -29 2 0 20 43 34 54 17z
m1104 -4 c21 -21 13 -25 -22 -14 -22 7 -30 13 -23 18 17 11 31 10 45 -4z
m-553 -384 c0 -275 -2 -338 -11 -308 -11 36 -15 36 -26 -3 -2 -7 -3 135 -3
316 0 261 3 327 12 319 9 -7 15 -6 19 6 3 9 7 16 8 16 0 0 1 -156 1 -346z
m-545 286 c0 -5 -8 -10 -17 -10 -15 0 -16 2 -3 10 19 12 20 12 20 0z m1065 0
c3 -5 2 -10 -4 -10 -5 0 -13 5 -16 10 -3 6 -2 10 4 10 5 0 13 -4 16 -10z"/>
<path d="M2185 4036 c10 -14 19 -26 22 -26 7 0 -17 39 -28 46 -6 3 -3 -5 6
-20z"/>
<path d="M2205 5080 c3 -5 16 -15 28 -21 22 -12 22 -12 3 10 -19 21 -43 30
-31 11z"/>
</g>
</svg>
