<?xml version="1.0" encoding="utf-8"?>
<!-- Generator: Adobe Illustrator 19.0.0, SVG Export Plug-In . SVG Version: 6.00 Build 0)  -->
<svg version="1.1" id="Layer_1" xmlns="http://www.w3.org/2000/svg" xmlns:xlink="http://www.w3.org/1999/xlink" x="0px" y="0px"
	 viewBox="0 0 80.8 91.7" style="enable-background:new 0 0 80.8 91.7;" xml:space="preserve">
<style type="text/css">
	.st0{fill:#A01823;}
	.st1{fill:#DA1F26;}
	.st2{fill:#FFFFFF;}
</style>
<g id="layer1_6_" transform="translate(-193.633,-276.3622)">
	<g id="g3013_6_" transform="translate(119,276.3622)">
		<polygon id="polygon2989_6_" class="st0" points="155.5,0 148.1,82.5 115,91.7 82,82.5 74.6,0 		"/>
		<polygon id="polygon2991_6_" class="st1" points="141.8,77.2 148.1,6.7 115.1,6.7 115.1,84.7 		"/>
	</g>
</g>
<path id="XMLID_58_" class="st2" d="M66.1,44.9v1.8c0,0.1,0,0.2-0.1,0.3c-0.1,0.8-0.2,1.6-0.3,2.4c-0.4,2.5-1.3,4.9-2.7,7.1
	c-2.1,3.3-4.8,5.8-8.3,7.6c-2,1-4.2,1.6-6.4,1.9c-0.5,0.1-1,0.1-1.5,0.2H27.5c-0.1,0-0.2,0-0.3-0.1c-1.9-0.1-3.8-0.6-5.6-1.3
	c-3.9-1.7-6.8-4.5-8.7-8.3c-0.8-1.7-1.4-3.5-1.6-5.3c-0.1-0.5-0.1-0.9-0.2-1.4V48c0-0.1,0-0.2,0.1-0.3c0.1-1.7,0.4-3.3,1.1-4.9
	c1.6-4.2,4.5-7.4,8.6-9.4c2.1-1.1,4.4-1.6,6.7-1.7c1.2-0.1,2.3,0,3.4,0.2c0.1,0,0.3,0,0.3-0.1c1.6-1.7,3.5-3,5.6-4.1
	c2-1,4.2-1.6,6.5-1.9c0.5-0.1,1.1-0.1,1.6-0.2h1.6c0.1,0,0.2,0,0.3,0c0.8,0.1,1.6,0.2,2.4,0.3c2.5,0.4,4.9,1.3,7,2.7
	c3.3,2.1,5.9,4.9,7.6,8.4c1,2,1.6,4.2,1.9,6.4C66,43.9,66,44.4,66.1,44.9 M35.4,33.2C35.4,33.3,35.4,33.3,35.4,33.2
	c1.2,0.6,2.3,1.3,3.3,2c0.1,0,0.2,0,0.3,0c2.8-1.8,5.8-2.4,9.1-1.8c3.2,0.6,5.8,2.2,7.8,4.7c2.2,2.9,3.1,6.1,2.5,9.8
	c-0.4,2.4-1.4,4.6-3,6.4c-3,3.3-6.8,4.7-11.3,4.1c-2.7-0.4-5.1-1.5-7.1-3.5c-2.5-2.5-5-5.1-7.6-7.6c-0.3-0.3-0.7-0.6-1.2-0.7
	c-0.8-0.1-1.6,0.3-2,1.1c-0.3,0.7-0.3,1.4,0.4,2.1c2.8,2.8,5.6,5.5,8.4,8.3c0.5,0.5,1,0.9,1.5,1.3c2.1,1.5,4.4,2.3,6.9,2.6
	c2,0.3,3.9,0.2,5.9-0.2c3.7-0.8,6.8-2.7,9.2-5.6c2-2.4,3.2-5.2,3.6-8.3c0.2-1.8,0.2-3.6-0.2-5.3c-0.6-2.9-1.8-5.4-3.7-7.6
	c-3.7-4.2-8.4-6-13.9-5.6c-2.1,0.2-4.2,0.8-6,1.8C37.2,31.8,36.3,32.5,35.4,33.2 M34,62.3c-0.1-0.1-0.2-0.1-0.2-0.2
	c-1.1-1.1-2.3-2.2-3.4-3.3c-0.2-0.2-0.4-0.3-0.7-0.3c-1.2,0-2.3,0-3.4-0.2c-5.6-1.3-8.9-7.4-6.8-12.8c1.6-4.3,6.2-6.8,10.6-6
	c2,0.4,3.8,1.2,5.2,2.7c1.8,1.8,3.6,3.6,5.4,5.4c0.4,0.4,0.9,0.6,1.4,0.5c0.7-0.1,1.3-0.4,1.6-1.2c0.3-0.7,0.1-1.4-0.4-1.9
	c-1.9-1.9-3.7-3.8-5.6-5.6c-3.8-3.5-8.2-4.6-13.1-3.1c-6.6,2-10.5,8.8-9,15.6c1.4,6.1,6.7,10.5,13,10.5c1.8,0,3.5,0,5.3,0
	C33.8,62.3,33.9,62.3,34,62.3"/>
</svg>
