<?xml version="1.0" encoding="utf-8"?>
<!-- Generator: Adobe Illustrator 19.0.0, SVG Export Plug-In . SVG Version: 6.00 Build 0)  -->
<svg version="1.1" id="Layer_1" xmlns="http://www.w3.org/2000/svg" xmlns:xlink="http://www.w3.org/1999/xlink" x="0px" y="0px"
	 viewBox="-439 235.8 80.5 91.2" style="enable-background:new -439 235.8 80.5 91.2;" xml:space="preserve">
<style type="text/css">
	.st0{fill:#34157C;}
	.st1{fill:#491FA6;}
	.st2{fill:#FFFFFF;}
</style>
<g id="layer1_11_" transform="translate(-193.633,-276.3622)">
	<g id="g3013_11_" transform="translate(119,276.3622)">
		<polygon id="polygon2989_11_" class="st0" points="-283.7,236.4 -291.1,318.9 -324.2,328 -357.2,318.9 -364.5,236.4 		"/>
		<polygon id="polygon2991_11_" class="st1" points="-297.4,313.6 -291.1,243.1 -324.1,243.1 -324.1,321 		"/>
	</g>
</g>
<g id="XMLID_101_">
	<path id="XMLID_104_" class="st2" d="M-392.6,292.2h5.5l-8.7-22.6h-6l-8.7,22.6h5.5l1.4-3.8h8.2l-1.5-4.2h-5.4l3.5-9.7
		L-392.6,292.2z M-374.6,275.5c-0.2-0.7-0.9-1.1-1.6-0.9c-0.7,0.2-1.1,0.9-0.9,1.6c0.5,2,0.8,4,0.8,6.1c0,12.5-10.2,22.6-22.6,22.6
		c-12.5,0-22.6-10.2-22.6-22.6c0-12.5,10.2-22.6,22.6-22.6c5.3,0,10.4,1.9,14.4,5.2c-0.2,0.4-0.2,0.8-0.2,1.2c0,1.7,1.4,3.2,3.2,3.2
		s3.2-1.4,3.2-3.2s-1.4-3.2-3.2-3.2c-0.3,0-0.7,0.1-1,0.2c-4.5-3.9-10.4-6.1-16.4-6.1c-13.9,0-25.2,11.3-25.2,25.2
		c0,13.9,11.3,25.2,25.2,25.2s25.2-11.3,25.2-25.2C-373.7,279.9-374,277.7-374.6,275.5z"/>
</g>
</svg>
