<?xml version="1.0" encoding="utf-8"?>
<!-- Generator: Adobe Illustrator 19.0.0, SVG Export Plug-In . SVG Version: 6.00 Build 0)  -->
<svg version="1.1" id="Layer_1" xmlns="http://www.w3.org/2000/svg" xmlns:xlink="http://www.w3.org/1999/xlink" x="0px" y="0px"
	 viewBox="0 0 80.5 91.2" style="enable-background:new 0 0 80.5 91.2;" xml:space="preserve">
<style type="text/css">
	.st0{fill:#264DE4;}
	.st1{fill:#2965F1;}
	.st2{fill:#FFFFFF;}
</style>
<g id="layer1" transform="translate(-193.633,-276.3622)">
	<g id="g3013" transform="translate(119,276.3622)">
		<polygon id="polygon2989" class="st0" points="155.5,0.1 148.1,82.6 115,91.7 82,82.6 74.6,0.1 		"/>
		<polygon id="polygon2991" class="st1" points="141.8,77.3 148.1,6.8 115.1,6.8 115.1,84.7 		"/>
		<polygon id="polygon2993" class="st2" points="91.5,37.4 92.4,47.5 115.1,47.5 115.1,37.4 		"/>
		<polygon id="polygon2995" class="st2" points="115.1,16.9 115,16.9 89.7,16.9 90.6,27.1 115.1,27.1 		"/>
		<polygon id="polygon2997" class="st2" points="115.1,74.2 115.1,63.7 115,63.7 103.7,60.7 103,52.6 97.5,52.6 92.9,52.6 
			94.3,68.5 115,74.2 		"/>
		<polygon id="polygon3005" class="st2" points="127.5,47.5 126.3,60.7 115,63.7 115,74.2 135.8,68.5 135.9,66.8 138.3,40.1 
			138.5,37.4 140.4,16.9 115,16.9 115,27.1 129.3,27.1 128.4,37.4 115,37.4 115,47.5 		"/>
	</g>
</g>
</svg>
