<?xml version="1.0" encoding="utf-8"?>
<!-- Generator: Adobe Illustrator 19.0.0, SVG Export Plug-In . SVG Version: 6.00 Build 0)  -->
<svg version="1.1" id="Layer_1" xmlns="http://www.w3.org/2000/svg" xmlns:xlink="http://www.w3.org/1999/xlink" x="0px" y="0px"
	 viewBox="0 0 80.8 91.7" style="enable-background:new 0 0 80.8 91.7;" xml:space="preserve">
<style type="text/css">
	.st0{fill:#CAA039;}
	.st1{fill:#D6C34A;}
	.st2{fill:#FFFFFF;}
</style>
<g id="layer1_7_" transform="translate(-193.633,-276.3622)">
	<g id="g3013_7_" transform="translate(119,276.3622)">
		<polygon id="polygon2989_7_" class="st0" points="155.5,0 148.1,82.5 115,91.7 82,82.5 74.6,0 		"/>
		<polygon id="polygon2991_7_" class="st1" points="141.8,77.2 148.1,6.7 115.1,6.7 115.1,84.7 		"/>
	</g>
</g>
<path id="icon_1_" class="st2" d="M19.9,56.1l6-38.3c0.2-1.3,2-1.6,2.6-0.4l6.4,12L19.9,56.1z M62.5,65.4l-5.7-35.3
	c-0.2-1.1-1.5-1.5-2.3-0.8l-36,36.1l19.9,11.2c1.2,0.7,2.8,0.7,4,0L62.5,65.4z M46.3,34.6l-4.6-8.8c-0.5-1-1.9-1-2.4,0L19,61.9
	L46.3,34.6z"/>
</svg>
