<?xml version="1.0" encoding="utf-8"?>
<!-- Generator: Adobe Illustrator 19.0.0, SVG Export Plug-In . SVG Version: 6.00 Build 0)  -->
<svg version="1.1" id="Layer_1" xmlns="http://www.w3.org/2000/svg" xmlns:xlink="http://www.w3.org/1999/xlink" x="0px" y="0px"
	 viewBox="0 0 80.8 91.7" style="enable-background:new 0 0 80.8 91.7;" xml:space="preserve">
<style type="text/css">
	.st0{fill:#663399;}
	.st1{fill:#7C43BF;}
	.st2{fill:#FFFFFF;}
</style>
<g id="layer1_8_" transform="translate(-193.633,-276.3622)">
	<g id="g3013_8_" transform="translate(119,276.3622)">
		<polygon id="polygon2989_8_" class="st0" points="156.1,0.1 148.8,82.6 115.7,91.7 82.7,82.6 75.3,0.1 		"/>
		<polygon id="polygon2991_8_" class="st1" points="142.5,77.3 148.8,6.8 115.7,6.8 115.7,84.7 		"/>
	</g>
</g>
<path id="XMLID_73_" class="st2" d="M24.5,65.2c-4.7-4.7-7-10.8-7.1-16.9l24,24C35.3,72.2,29.2,69.8,24.5,65.2L24.5,65.2z
	 M47.1,71.7L18,42.6c2.5-10.9,12.1-19,23.7-19c8.1,0,15.3,4,19.7,10.1L58,36.5c-3.6-5.1-9.6-8.5-16.3-8.5c-8.7,0-16,5.6-18.8,13.3
	l25.4,25.4c6.4-2.3,11.3-7.7,12.8-14.3H50.6v-4.4h15.5C66.1,59.5,58,69.2,47.1,71.7z"/>
</svg>
