<?xml version="1.0" encoding="utf-8"?>
<!-- Generator: Adobe Illustrator 19.0.0, SVG Export Plug-In . SVG Version: 6.00 Build 0)  -->
<svg version="1.1" id="Layer_1" xmlns="http://www.w3.org/2000/svg" xmlns:xlink="http://www.w3.org/1999/xlink" x="0px" y="0px"
	 viewBox="0 0 80.5 91.2" style="enable-background:new 0 0 80.5 91.2;" xml:space="preserve">
<style type="text/css">
	.st0{fill:#141313;}
	.st1{fill:#4F4D4D;}
	.st2{fill:#FFFFFF;}
</style>
<g id="layer1_5_" transform="translate(-193.633,-276.3622)">
	<g id="g3013_5_" transform="translate(119,276.3622)">
		<polygon id="polygon2989_5_" class="st0" points="155.6,0.1 148.3,82.6 115.2,91.7 82.2,82.6 74.8,0.1 		"/>
		<polygon id="polygon2991_5_" class="st1" points="142,77.3 148.3,6.8 115.2,6.8 115.2,84.7 		"/>
	</g>
</g>
<path id="Cat" class="st2" d="M50.4,78.5h-8.3h-8.3c0,0,0-4.9,0-8.3c-11.4,2.5-14.6-6.2-14.6-6.2c-2.1-4.2-4.2-6.3-4.2-6.3
	c-4.2-2.5,0-2.1,0-2.1c4.2,0,6.2,4.2,6.2,4.2c3.7,6.2,10.2,5.2,12.5,4.2c0-2.1,0.9-5.2,2.1-6.3c-9.1-1-16.7-6.3-16.7-16.7
	s2.1-12.5,4.2-14.6c-0.4-1-2.2-4.8,0.1-10.4c0,0,4.1,0,8.3,6.3c2.1-2.1,8.3-2.1,10.4-2.1c2.1,0,8.4,0,10.4,2.1
	c4.2-6.3,8.3-6.3,8.3-6.3c2.2,5.6,0.5,9.4,0.1,10.4C62.9,28.5,65,30.6,65,41s-7.6,15.6-16.7,16.7c1.2,1,2.1,4.6,2.1,6.3V78.5z"/>
</svg>
