<?xml version="1.0" encoding="utf-8"?>
<!-- Generator: Adobe Illustrator 19.0.0, SVG Export Plug-In . SVG Version: 6.00 Build 0)  -->
<svg version="1.1" id="Layer_1" xmlns="http://www.w3.org/2000/svg" xmlns:xlink="http://www.w3.org/1999/xlink" x="0px" y="0px"
	 viewBox="0 0 80.8 91.7" style="enable-background:new 0 0 80.8 91.7;" xml:space="preserve">
<style type="text/css">
	.st0{fill:#B52D8F;}
	.st1{fill:#E535AB;}
	.st2{fill:#FFFFFF;}
</style>
<g id="layer1_9_" transform="translate(-193.633,-276.3622)">
	<g id="g3013_9_" transform="translate(119,276.3622)">
		<polygon id="polygon2989_9_" class="st0" points="156.1,0.1 148.8,82.6 115.7,91.7 82.7,82.6 75.3,0.1 		"/>
		<polygon id="polygon2991_9_" class="st1" points="142.5,77.3 148.8,6.8 115.7,6.8 115.7,84.7 		"/>
	</g>
</g>
<g id="XMLID_80_">
	<g id="XMLID_111_">
		<g id="XMLID_112_">
			
				<rect id="XMLID_78_" x="30.2" y="18.9" transform="matrix(0.866 0.5 -0.5 0.866 24.8179 -10.1409)" class="st2" width="2.3" height="44.7"/>
		</g>
	</g>
	<g id="XMLID_108_">
		<g id="XMLID_109_">
			<rect id="XMLID_77_" x="18.7" y="56.9" class="st2" width="44.7" height="2.3"/>
		</g>
	</g>
	<g id="XMLID_105_">
		<g id="XMLID_106_">
			
				<rect id="XMLID_76_" x="18.4" y="62.5" transform="matrix(0.866 0.5 -0.5 0.866 36.0308 -7.1392)" class="st2" width="25.8" height="2.3"/>
		</g>
	</g>
	<g id="XMLID_102_">
		<g id="XMLID_103_">
			
				<rect id="XMLID_75_" x="37.8" y="28.9" transform="matrix(0.866 0.5 -0.5 0.866 21.8184 -21.3506)" class="st2" width="25.8" height="2.3"/>
		</g>
	</g>
	<g id="XMLID_99_">
		<g id="XMLID_100_">
			
				<rect id="XMLID_74_" x="30.2" y="17.1" transform="matrix(0.5 0.866 -0.866 0.5 41.6765 -12.1298)" class="st2" width="2.3" height="25.8"/>
		</g>
	</g>
	<g id="XMLID_96_">
		<g id="XMLID_97_">
			
				<rect id="XMLID_72_" x="28.4" y="40.1" transform="matrix(0.5 0.866 -0.866 0.5 61.0961 -23.3439)" class="st2" width="44.7" height="2.3"/>
		</g>
	</g>
	<g id="XMLID_93_">
		<g id="XMLID_94_">
			<rect id="XMLID_71_" x="20.5" y="33.9" class="st2" width="2.3" height="25.8"/>
		</g>
	</g>
	<g id="XMLID_90_">
		<g id="XMLID_91_">
			<rect id="XMLID_66_" x="59.3" y="33.9" class="st2" width="2.3" height="25.8"/>
		</g>
	</g>
	<g id="XMLID_87_">
		<g id="XMLID_88_">
			
				<rect id="XMLID_65_" x="49.7" y="52.4" transform="matrix(0.5 0.866 -0.866 0.5 80.4961 -12.1251)" class="st2" width="2" height="22.4"/>
		</g>
	</g>
	<path id="XMLID_64_" class="st2" d="M64.7,60.5c-1.3,2.3-4.3,3.1-6.7,1.8c-2.3-1.3-3.1-4.3-1.8-6.7c1.3-2.3,4.3-3.1,6.7-1.8
		C65.2,55.2,66,58.2,64.7,60.5"/>
	<path id="XMLID_63_" class="st2" d="M25.8,38.1c-1.3,2.3-4.3,3.1-6.7,1.8s-3.1-4.3-1.8-6.7s4.3-3.1,6.7-1.8
		C26.4,32.8,27.2,35.7,25.8,38.1"/>
	<path id="XMLID_62_" class="st2" d="M17.4,60.5c-1.3-2.3-0.5-5.3,1.8-6.7c2.3-1.3,5.3-0.5,6.7,1.8c1.3,2.3,0.5,5.3-1.8,6.7
		C21.7,63.6,18.7,62.8,17.4,60.5"/>
	<path id="XMLID_61_" class="st2" d="M56.3,38.1c-1.3-2.3-0.5-5.3,1.8-6.7c2.3-1.3,5.3-0.5,6.7,1.8c1.3,2.3,0.5,5.3-1.8,6.7
		C60.6,41.2,57.6,40.4,56.3,38.1"/>
	<path id="XMLID_60_" class="st2" d="M41,74.2c-2.7,0-4.9-2.2-4.9-4.9c0-2.7,2.2-4.9,4.9-4.9c2.7,0,4.9,2.2,4.9,4.9
		C45.9,72,43.7,74.2,41,74.2"/>
	<path id="XMLID_57_" class="st2" d="M41,29.3c-2.7,0-4.9-2.2-4.9-4.9s2.2-4.9,4.9-4.9c2.7,0,4.9,2.2,4.9,4.9S43.7,29.3,41,29.3"/>
</g>
</svg>
