<?xml version="1.0" encoding="utf-8"?>
<!-- Generator: Adobe Illustrator 19.0.0, SVG Export Plug-In . SVG Version: 6.00 Build 0)  -->
<svg version="1.1" id="Layer_1" xmlns="http://www.w3.org/2000/svg" xmlns:xlink="http://www.w3.org/1999/xlink" x="0px" y="0px"
	 viewBox="0 0 80.5 91.2" style="enable-background:new 0 0 80.5 91.2;" xml:space="preserve">
<style type="text/css">
	.st0{fill:#D6BA32;}
	.st1{fill:#FFDA3E;}
	.st2{fill:#FFFFFF;}
</style>
<g id="g8487" transform="translate(-202.57553,-38.463711)">
	<g id="g3768" transform="matrix(1.25,0,0,1.25,-2.5065195,174.1722)">
		<path id="path3770" class="st0" d="M164.6-108.3c7.2-0.3,14.4,0.1,21.6,0c8-0.3,15.9,0,23.9,0
			c6.3,0,12.6,0,19,0c-2,21.8-4,43.5-5.8,65.3c-8.5,2.4-16.9,4.7-25.4,7.1c-1.1,0.4-2.2,0-3.2-0.3c-8-2.3-16.1-4.6-24.2-6.8
			C168.3-64.7,166.3-86.5,164.6-108.3 M196.9-102.7c-0.3,10.7,0,21.5-0.1,32.2c0.1,9.8-0.1,19.6,0.1,29.5c7.1-1.7,14.1-3.7,21.2-5.7
			c1.8-18.6,3.5-37.3,5-55.9C214.3-102.7,205.6-102.6,196.9-102.7 M187.9-60.7c-4.2-1.1-8.3-2.4-12.5-3.3c-0.1,2.5-0.1,5,0.2,7.5
			c6.2,1.5,12.3,3.5,18.5,4.9c0-14.2,0-28.4,0-42.7c-2-0.1-4-0.1-6.1-0.1C187.8-83.2,188-72,187.9-60.7L187.9-60.7z"/>
	</g>
	<g id="g3796" transform="matrix(1.25,0,0,1.25,-2.5065195,174.1722)">
		<path id="path3798" class="st1" d="M196.9-102.7c8.7,0,17.4-0.1,26.1,0
			c-1.5,18.7-3.2,37.3-5,55.9c-7,2-14,4.1-21.2,5.7c-0.3-9.8,0-19.6-0.1-29.5C196.9-81.2,196.6-91.9,196.9-102.7 M199.4-94.3
			c0,9.2,0,18.5,0,27.7c4.3-0.7,8.5-1.5,12.7-2.2c-0.1,2.2-0.2,4.3-0.2,6.5c-4.1,1.1-8.2,2.2-12.4,3.2c-0.1,2.5-0.1,5-0.1,7.5
			c5.2-1.2,10.4-2.6,15.6-3.9c0.7-0.3,1.9-0.3,1.8-1.3c0.6-6.6,1-13.3,1.6-20c-4.3,0.4-8.6,1.1-12.9,1.4c0-3.8,0-7.5,0-11.3
			c4.5,0,9,0,13.6,0c0.3-2.5,0.5-5,0.7-7.6C213-94.3,206.2-94.4,199.4-94.3L199.4-94.3z"/>
	</g>
	<path id="path3806" class="st2" d="M232.3,98.3c0.1-14-0.2-28.1,0.1-42.1
		c2.5,0.1,5.1,0.1,7.6,0.2c-0.1,17.8,0,35.6,0,53.3c-7.8-1.8-15.4-4.3-23.1-6.2c-0.4-3.1-0.4-6.2-0.3-9.3
		C222,95.2,227.1,96.8,232.3,98.3z"/>
</g>
</svg>
