<?xml version="1.0" encoding="utf-8"?>
<!-- Generator: Adobe Illustrator 19.0.0, SVG Export Plug-In . SVG Version: 6.00 Build 0)  -->
<svg version="1.1" id="Layer_1" xmlns="http://www.w3.org/2000/svg" xmlns:xlink="http://www.w3.org/1999/xlink" x="0px" y="0px"
	 viewBox="-439 235.8 80.5 91.2" style="enable-background:new -439 235.8 80.5 91.2;" xml:space="preserve">
<style type="text/css">
	.st0{fill:#1D9183;}
	.st1{fill:#20C6B7;}
	.st2{fill:#FFFFFF;}
</style>
<g id="layer1_13_" transform="translate(-193.633,-276.3622)">
	<g id="g3013_13_" transform="translate(119,276.3622)">
		<polygon id="polygon2989_13_" class="st0" points="-283.2,236.5 -290.6,319 -323.7,328.2 -356.7,319 -364,236.5 		"/>
		<polygon id="polygon2991_13_" class="st1" points="-296.9,313.8 -290.6,243.3 -323.6,243.3 -323.6,321.2 		"/>
	</g>
</g>
<g id="XMLID_116_">
	<path id="XMLID_117_" class="st2" d="M-386.9,276.6L-386.9,276.6C-386.9,276.5-386.9,276.5-386.9,276.6c-0.1-0.1-0.1-0.1-0.1-0.2
		l1.1-6.5l5,5l-5.2,2.2c0,0,0,0,0,0h0c0,0,0,0,0,0C-386.4,276.9-386.6,276.7-386.9,276.6z M-379.6,276.2l5.4,5.4
		c1.1,1.1,1.7,1.7,1.9,2.3c0,0.1,0.1,0.2,0.1,0.3l-12.8-5.4c0,0,0,0,0,0c-0.1,0-0.1,0-0.1-0.1s0.1-0.1,0.1-0.1l0,0L-379.6,276.2z
		 M-372.5,285.8c-0.3,0.5-0.8,1.1-1.7,2l-6,6l-7.8-1.6l0,0c-0.1,0-0.1,0-0.1-0.1c-0.1-0.7-0.4-1.2-0.9-1.6c0,0,0-0.1,0-0.1
		c0,0,0,0,0,0l1.5-9l0,0c0-0.1,0-0.1,0.1-0.1c0.6-0.1,1.2-0.4,1.6-0.9c0,0,0,0,0,0c0,0,0.1,0,0.1,0L-372.5,285.8L-372.5,285.8z
		 M-381.7,295.3l-9.9,9.9l1.7-10.5l0,0c0,0,0,0,0,0c0,0,0,0,0.1-0.1l0,0c0.4-0.2,0.7-0.4,1-0.7c0,0,0.1-0.1,0.1-0.1c0,0,0,0,0,0
		L-381.7,295.3L-381.7,295.3z M-393.7,307.3l-1.1,1.1l-12.4-17.9c0,0,0,0,0,0c0,0,0-0.1,0-0.1c0,0,0,0,0-0.1l0,0
		c0-0.1,0.1-0.1,0.1-0.2l0,0l0,0c0,0,0-0.1,0.1-0.1c0,0,0.1,0,0.1,0l13.7,2.8c0,0,0.1,0,0.1,0c0,0,0,0,0,0.1
		c0.2,0.7,0.7,1.3,1.4,1.6c0,0,0,0.1,0,0.1c0,0,0,0,0,0.1C-391.8,295.8-393.3,304.9-393.7,307.3z M-396.1,309.6
		c-0.8,0.8-1.3,1.3-1.9,1.4c-0.5,0.2-1.1,0.2-1.7,0c-0.6-0.2-1.2-0.8-2.3-1.9l-12.4-12.4l3.2-5c0,0,0,0,0.1-0.1c0,0,0.1,0,0.1,0
		c0.7,0.2,1.5,0.2,2.3-0.1c0,0,0.1,0,0.1,0c0,0,0,0,0,0L-396.1,309.6L-396.1,309.6z M-415.6,295.5l-2.9-2.9l5.6-2.4c0,0,0,0,0,0
		c0,0,0.1,0,0.1,0.1c0.1,0.1,0.1,0.2,0.2,0.3l0,0c0,0,0,0,0,0.1L-415.6,295.5L-415.6,295.5z M-419.7,291.4l-3.6-3.6
		c-0.6-0.6-1.1-1.1-1.4-1.4l11,2.3c0,0,0,0,0,0c0.1,0,0.1,0,0.1,0.1c0,0.1-0.1,0.1-0.2,0.1l0,0L-419.7,291.4z M-425.3,284.5
		c0-0.2,0.1-0.5,0.1-0.7c0.2-0.6,0.8-1.2,1.9-2.3l4.6-4.6c2.1,3.1,4.3,6.2,6.4,9.2c0,0,0.1,0.1,0,0.1c-0.2,0.2-0.4,0.5-0.5,0.7
		c0,0,0,0.1-0.1,0.1c0,0,0,0-0.1,0h0L-425.3,284.5L-425.3,284.5z M-417.4,275.7l6.2-6.2c0.6,0.3,2.7,1.2,4.6,2
		c1.4,0.6,2.7,1.2,3.2,1.3c0,0,0.1,0,0.1,0.1c0,0,0,0.1,0,0.1c-0.2,0.9,0.1,1.9,0.7,2.5c0,0,0,0.1,0,0.2l0,0l-6.3,9.8
		c0,0,0,0.1-0.1,0.1c0,0-0.1,0-0.1,0c-0.2-0.1-0.5-0.1-0.8-0.1c-0.2,0-0.5,0-0.7,0.1h0c0,0-0.1,0-0.1,0c0,0,0,0-0.1-0.1
		L-417.4,275.7L-417.4,275.7z M-410,268.2l8-8c1.1-1.1,1.7-1.7,2.3-1.9c0.5-0.2,1.1-0.2,1.7,0c0.6,0.2,1.2,0.8,2.3,1.9l1.7,1.7
		l-5.7,8.9c0,0,0,0-0.1,0.1c0,0-0.1,0-0.1,0c-0.9-0.3-1.9-0.1-2.7,0.5c0,0-0.1,0-0.1,0C-403.3,271-409.1,268.6-410,268.2z
		 M-392.7,263.1l5.3,5.3l-1.3,7.9v0c0,0,0,0,0,0.1c0,0,0,0-0.1,0c-0.3,0.1-0.5,0.2-0.8,0.4c0,0,0,0,0,0c0,0,0,0-0.1,0c0,0,0,0-0.1,0
		l-8-3.4l0,0c-0.1,0-0.1,0-0.1-0.1c0-0.4-0.2-0.9-0.4-1.3c0-0.1-0.1-0.1,0-0.2L-392.7,263.1z M-398.1,275l7.5,3.2c0,0,0.1,0,0.1,0.1
		c0,0,0,0.1,0,0.1c0,0.1,0,0.2,0,0.4v0.2c0,0.1-0.1,0.1-0.1,0.1l0,0c-1.2,0.5-16.8,7.2-16.8,7.2c0,0,0,0-0.1,0c0,0,0-0.1,0-0.2
		c0,0,0,0,0,0l6.2-9.6l0,0c0-0.1,0.1-0.1,0.1-0.1l0.1,0c0.1,0,0.3,0,0.4,0c0.9,0,1.8-0.5,2.3-1.2c0,0,0,0,0-0.1
		C-398.2,275-398.1,275-398.1,275z M-406.7,287.7l17-7.2c0,0,0,0,0,0c0.1,0.1,0.2,0.2,0.2,0.2l0,0c0,0,0.1,0,0.1,0.1c0,0,0,0,0,0
		l-1.5,8.9l0,0c0,0.1,0,0.1-0.1,0.1c-0.8,0.1-1.5,0.5-1.9,1.2l0,0c0,0,0,0.1-0.1,0.1c0,0-0.1,0-0.1,0l-13.5-2.8
		C-406.5,288.4-406.7,287.7-406.7,287.7z"/>
</g>
</svg>
