<?xml version="1.0" encoding="utf-8"?>
<!-- Generator: Adobe Illustrator 19.0.0, SVG Export Plug-In . SVG Version: 6.00 Build 0)  -->
<svg version="1.1" id="Layer_1" xmlns="http://www.w3.org/2000/svg" xmlns:xlink="http://www.w3.org/1999/xlink" x="0px" y="0px"
	 viewBox="-439 235.3 80.8 91.7" style="enable-background:new -439 235.3 80.8 91.7;" xml:space="preserve">
<style type="text/css">
	.st0{fill:#666666;}
	.st1{fill:#A8A8A8;}
	.st2{fill:#FFFFFF;}
</style>
<g id="layer1_10_" transform="translate(-193.633,-276.3622)">
	<g id="g3013_10_" transform="translate(119,276.3622)">
		<polygon id="polygon2989_10_" class="st0" points="-283.6,235.3 -291,317.8 -324.1,326.9 -357.1,317.8 -364.4,235.3 		"/>
		<polygon id="polygon2991_10_" class="st1" points="-297.3,312.5 -291,242 -324,242 -324,319.9 		"/>
	</g>
</g>
<g id="Page-1">
	<g id="Black-Next.js" transform="translate(-247.000000, -138.000000)">
		<g id="next-black" transform="translate(247.000000, 138.000000)">
			<g id="EXT-_x2B_-Type-something">
				<path id="EXT" class="st2" d="M-412.4,272.7h9.8v0.8h-8.9v5.8h8.4v0.8h-8.4v6.4h9v0.8h-9.9V272.7z M-401.7,272.7h1l4.6,6.4
					l4.7-6.4l6.4-8.2l-10.6,15.2l5.4,7.5h-1.1l-5-6.8l-5,6.8h-1.1l5.5-7.5L-401.7,272.7z M-389.6,273.5v-0.8h11.2v0.8h-5.2v13.8
					h-0.9v-13.8H-389.6z"/>
				<polygon id="Type-something" class="st2" points="-424.7,272.7 -423.6,272.7 -408.1,295.8 -414.5,287.3 -423.8,273.8 
					-423.8,287.3 -424.7,287.3 				"/>
			</g>
			<path id="_x2E_JS" class="st2" d="M-378.5,286.3c0.2,0,0.3-0.1,0.3-0.3c0-0.2-0.1-0.3-0.3-0.3c-0.2,0-0.3,0.1-0.3,0.3
				C-378.9,286.1-378.7,286.3-378.5,286.3z M-377.7,285.4c0,0.5,0.4,0.9,1,0.9s1-0.4,1-1v-2.2h-0.5v2.2c0,0.4-0.2,0.5-0.5,0.5
				s-0.5-0.2-0.5-0.4H-377.7z M-375.1,285.4c0,0.6,0.5,0.9,1.2,0.9s1.2-0.4,1.2-1c0-0.5-0.3-0.7-0.9-0.9l-0.3-0.1
				c-0.4-0.1-0.6-0.2-0.6-0.4c0-0.3,0.3-0.5,0.6-0.5c0.4,0,0.6,0.2,0.7,0.5h0.5c0-0.5-0.5-0.9-1.1-0.9c-0.7,0-1.1,0.4-1.1,0.9
				s0.3,0.7,0.8,0.9l0.4,0.1c0.4,0.1,0.6,0.2,0.6,0.5s-0.3,0.5-0.7,0.5c-0.4,0-0.7-0.2-0.8-0.5H-375.1z"/>
		</g>
	</g>
</g>
</svg>
