<?xml version="1.0" encoding="utf-8"?>
<!-- Generator: Adobe Illustrator 19.0.0, SVG Export Plug-In . SVG Version: 6.00 Build 0)  -->
<svg version="1.1" id="Layer_1" xmlns="http://www.w3.org/2000/svg" xmlns:xlink="http://www.w3.org/1999/xlink" x="0px" y="0px"
	 viewBox="0 0 80.5 91.2" style="enable-background:new 0 0 80.5 91.2;" xml:space="preserve">
<style type="text/css">
	.st0{fill:#688E36;}
	.st1{fill:#8CC84B;}
	.st2{fill:#FFFFFF;}
</style>
<g id="layer1_3_" transform="translate(-193.633,-276.3622)">
	<g id="g3013_3_" transform="translate(119,276.3622)">
		<polygon id="polygon2989_3_" class="st0" points="156.1,0.1 148.8,82.6 115.7,91.7 82.7,82.6 75.3,0.1 		"/>
		<polygon id="polygon2991_3_" class="st1" points="142.5,77.3 148.8,6.8 115.7,6.8 115.7,84.7 		"/>
	</g>
</g>
<g id="XMLID_14_">
	<path id="XMLID_16_" class="st2" d="M37.6,18.2c1.3-0.8,3.1-0.8,4.4,0c6.7,3.8,13.4,7.6,20.1,11.4c1.3,0.7,2.1,2.1,2.1,3.6V56
		c0,1.5-0.9,3-2.3,3.6c-6.7,3.8-13.4,7.6-20.1,11.3c-1.4,0.8-3.1,0.7-4.5-0.1c-2-1.2-4-2.3-6-3.5c-0.4-0.2-0.9-0.4-1.2-0.8
		c0.3-0.3,0.7-0.4,1.1-0.5c0.8-0.3,1.6-0.7,2.4-1.1c0.2-0.1,0.4-0.1,0.6,0c1.7,1,3.4,2,5.1,3c0.4,0.2,0.7-0.1,1.1-0.2
		c6.6-3.7,13.1-7.4,19.7-11.1c0.2-0.1,0.4-0.4,0.4-0.6c0-7.5,0-15.1,0-22.6c0-0.3-0.1-0.6-0.4-0.7c-6.7-3.8-13.3-7.5-20-11.3
		c-0.2-0.2-0.5-0.2-0.8,0c-6.7,3.8-13.3,7.5-20,11.3c-0.3,0.1-0.5,0.4-0.4,0.7c0,7.5,0,15.1,0,22.6c0,0.3,0.1,0.5,0.4,0.6
		c1.8,1,3.6,2,5.3,3c1,0.5,2.2,0.9,3.3,0.4c1-0.3,1.7-1.3,1.6-2.4c0-7.5,0-15,0-22.5c0-0.3,0.3-0.6,0.6-0.6c0.9,0,1.7,0,2.6,0
		c0.4,0,0.6,0.3,0.6,0.7c0,7.5,0,15.1,0,22.6c0,2-0.8,4.2-2.7,5.2c-2.3,1.2-5.1,0.9-7.4-0.2c-2-1-3.8-2.1-5.7-3.2
		c-1.3-0.7-2.3-2.1-2.2-3.7V33.2c0-1.5,0.9-2.9,2.2-3.6C24.2,25.8,30.9,22,37.6,18.2z"/>
	<path id="XMLID_15_" class="st2" d="M43.4,34.1c2.9-0.2,6-0.1,8.7,1.3c2,1.1,3.2,3.4,3.2,5.7c-0.1,0.3-0.4,0.5-0.7,0.5
		c-0.8,0-1.7,0-2.5,0c-0.4,0-0.6-0.3-0.6-0.6c-0.2-1.1-0.8-2.2-1.9-2.7c-1.6-0.8-3.4-0.7-5.1-0.7c-1.2,0.1-2.6,0.2-3.6,0.9
		c-0.8,0.6-1.1,1.7-0.8,2.6c0.3,0.6,1,0.9,1.6,1c3.5,0.9,7.2,0.8,10.7,2c1.4,0.5,2.8,1.5,3.3,2.9c0.6,2,0.4,4.4-1.1,6
		c-1.2,1.3-2.8,2-4.5,2.4c-2.2,0.5-4.6,0.5-6.8,0.3c-2.1-0.2-4.4-0.8-6-2.3c-1.4-1.2-2.1-3.1-2-5c0-0.3,0.3-0.5,0.6-0.5
		c0.9,0,1.7,0,2.6,0c0.3,0,0.6,0.3,0.6,0.6c0.2,1,0.5,2.1,1.4,2.7c1.7,1.1,3.9,1,5.9,1.1c1.6-0.1,3.5-0.1,4.8-1.2
		c0.7-0.6,0.9-1.7,0.7-2.5c-0.2-0.8-1-1.1-1.7-1.3c-3.5-1.1-7.2-0.7-10.7-1.9c-1.4-0.5-2.7-1.4-3.3-2.9c-0.7-2-0.4-4.5,1.2-6.1
		C39.1,34.9,41.3,34.3,43.4,34.1L43.4,34.1z"/>
</g>
</svg>
