<?xml version="1.0" encoding="utf-8"?>
<!-- Generator: Adobe Illustrator 19.0.0, SVG Export Plug-In . SVG Version: 6.00 Build 0)  -->
<svg version="1.1" id="Layer_1" xmlns="http://www.w3.org/2000/svg" xmlns:xlink="http://www.w3.org/1999/xlink" x="0px" y="0px"
	 viewBox="0 0 80.5 91.2" style="enable-background:new 0 0 80.5 91.2;" xml:space="preserve">
<style type="text/css">
	.st0{fill:#02B3C6;}
	.st1{fill:#00DBFC;}
	.st2{fill:#FFFFFF;}
</style>
<g id="layer1_2_" transform="translate(-193.633,-276.3622)">
	<g id="g3013_2_" transform="translate(119,276.3622)">
		<polygon id="polygon2989_2_" class="st0" points="155.5,0.1 148.1,82.6 115,91.7 82,82.6 74.6,0.1 		"/>
		<polygon id="polygon2991_2_" class="st1" points="141.8,77.3 148.1,6.8 115.1,6.8 115.1,84.7 		"/>
	</g>
</g>
<g id="XMLID_14_">
	<circle id="XMLID_30_" class="st2" cx="39.5" cy="44" r="4.5"/>
	<path id="XMLID_15_" class="st2" d="M62.1,39.6c-1.6-1.3-3.8-2.5-6.4-3.4c-0.5-0.2-1.1-0.3-1.6-0.5c0.1-0.4,0.2-0.7,0.2-1.1
		c1.2-6.1,0.3-10.8-2.3-12.4c-1.3-0.7-3.1-0.7-5.2,0c-1.9,0.7-4,2-6.1,3.8c-0.4,0.3-0.8,0.7-1.2,1.1c-0.2-0.2-0.6-0.5-0.8-0.7
		c-4.6-4.1-9.2-5.7-11.9-4.2c-1.3,0.7-2.2,2.3-2.6,4.5c-0.3,2-0.2,4.5,0.3,7.2c0.1,0.6,0.2,1.1,0.4,1.6c-0.7,0.2-1.3,0.4-1.9,0.6
		c-5.5,1.9-8.8,4.8-8.8,7.8c0,1.6,0.9,3.2,2.6,4.6c1.6,1.4,3.9,2.6,6.6,3.5c0.4,0.2,0.9,0.3,1.4,0.4c-0.2,0.6-0.2,1.2-0.4,1.8
		c-1.1,5.6-0.2,10,2.4,11.5c0.7,0.4,1.5,0.6,2.4,0.6c0.9,0,1.9-0.2,2.9-0.6c2-0.7,4.2-2,6.3-3.9c0.3-0.3,0.7-0.7,1.1-1
		c0.5,0.4,0.9,0.8,1.4,1.2c3.2,2.8,6.3,4.3,8.8,4.3c0.9,0,1.7-0.2,2.4-0.6c1.3-0.8,2.3-2.4,2.7-4.6c0.4-2.1,0.3-4.7-0.2-7.5
		c-0.1-0.4-0.2-0.9-0.3-1.3c0.3-0.1,0.7-0.2,0.9-0.3c5.9-2,9.5-5.1,9.5-8.2C64.6,42.5,63.7,41,62.1,39.6z M47.6,24.3
		c1.5-0.5,2.6-0.6,3.4-0.2c1.5,0.8,2.5,4.3,1.3,10.1c-0.1,0.3-0.2,0.7-0.2,1c-2.1-0.5-4.3-0.8-6.7-1.1c-1.4-2-2.8-3.8-4.3-5.3
		c0.4-0.4,0.7-0.7,1.1-1.1C44,26.1,45.9,24.9,47.6,24.3z M46.5,48.2c-0.8,1.4-1.6,2.7-2.4,3.8c-1.5,0.1-3,0.2-4.6,0.2
		c-1.6,0-3.1-0.1-4.6-0.2c-0.8-1.2-1.7-2.5-2.5-3.9c-0.8-1.3-1.5-2.7-2.1-4.1c0.7-1.4,1.4-2.7,2.1-4l0,0c0.8-1.3,1.6-2.6,2.5-3.9
		c1.5-0.1,3-0.2,4.6-0.2c1.6,0,3.1,0.1,4.6,0.2c0.8,1.2,1.6,2.5,2.5,3.8c0.8,1.4,1.6,2.7,2.2,4C48,45.4,47.3,46.8,46.5,48.2z
		 M49.8,46.6c0.7,1.6,1.2,3,1.7,4.4c-1.5,0.3-3,0.6-4.7,0.8c0.5-0.8,1.1-1.7,1.6-2.5C48.9,48.4,49.4,47.5,49.8,46.6z M39.5,57.9
		c-1-1.1-2-2.3-3-3.6c1,0,2,0.1,2.9,0.1c1.1,0,2,0,3-0.1C41.5,55.6,40.5,56.9,39.5,57.9z M32.2,51.8c-1.6-0.2-3.2-0.4-4.7-0.7
		c0.4-1.5,1-2.9,1.6-4.4c0.5,0.9,0.9,1.7,1.4,2.6C31.1,50.2,31.6,51,32.2,51.8z M30.6,38.9c-0.5,0.9-1,1.7-1.4,2.6
		c-0.7-1.5-1.1-2.9-1.6-4.3c1.5-0.3,2.9-0.6,4.6-0.8C31.6,37.2,31.1,38.1,30.6,38.9z M39.5,30.3c1,1.1,2,2.3,2.9,3.6
		c-1-0.1-2-0.1-3-0.1c-1,0-2,0-2.9,0.1C37.5,32.6,38.5,31.4,39.5,30.3z M48.3,38.9c-0.5-0.9-1-1.7-1.6-2.5c1.6,0.2,3.1,0.5,4.6,0.8
		c-0.4,1.4-1,2.9-1.6,4.3C49.4,40.7,48.9,39.8,48.3,38.9z M26.6,33.6c-0.5-2.5-0.6-4.7-0.2-6.4c0.2-1.5,0.8-2.5,1.6-3
		c1.5-0.8,5,0,9.3,3.9c0.2,0.2,0.5,0.5,0.7,0.7c-1.5,1.6-2.9,3.4-4.3,5.3c-2.4,0.2-4.7,0.6-6.7,1.1C26.8,34.6,26.8,34.1,26.6,33.6z
		 M24.2,50.2c-5.3-1.8-7.8-4.4-7.8-6.1c0-1.6,2.3-4,7.3-5.7c0.6-0.2,1.1-0.4,1.7-0.6c0.7,2,1.5,4.2,2.5,6.4c-1,2.2-1.9,4.3-2.5,6.5
		C25,50.4,24.6,50.3,24.2,50.2z M29.2,64.3c-0.6,0-1-0.1-1.3-0.3c-1.4-0.8-2.4-3.9-1.3-9.2c0.1-0.6,0.2-1.1,0.3-1.6
		c2,0.5,4.3,0.8,6.8,1c1.4,2,2.9,3.8,4.3,5.3c-0.3,0.3-0.7,0.6-1,0.9C33.9,63.2,31,64.3,29.2,64.3z M52.4,54.3
		c1.1,5.5,0,8.9-1.4,9.7s-4.6,0.1-8.6-3.4c-0.4-0.3-0.8-0.7-1.2-1.1c1.4-1.6,2.9-3.4,4.3-5.3c2.5-0.2,4.7-0.6,6.8-1.1
		C52.2,53.4,52.3,53.8,52.4,54.3z M54.4,50.2c-0.2,0.1-0.6,0.2-0.8,0.2c-0.7-2-1.5-4.2-2.5-6.4c1-2.1,1.8-4.3,2.5-6.3
		c0.5,0.2,1,0.3,1.5,0.5c2.4,0.8,4.3,1.9,5.6,2.9c1.1,1,1.8,2,1.8,2.9C62.5,45.7,59.9,48.4,54.4,50.2z"/>
</g>
</svg>
