<?xml version="1.0" encoding="utf-8"?>
<!-- Generator: Adobe Illustrator 19.0.0, SVG Export Plug-In . SVG Version: 6.00 Build 0)  -->
<svg version="1.1" id="Layer_1" xmlns="http://www.w3.org/2000/svg" xmlns:xlink="http://www.w3.org/1999/xlink" x="0px" y="0px"
	 viewBox="0 0 80.5 91.2" style="enable-background:new 0 0 80.5 91.2;" xml:space="preserve">
<style type="text/css">
	.st0{fill:#A5507E;}
	.st1{fill:#CF649A;}
	.st2{fill:#FFFFFF;}
</style>
<g id="layer1_1_" transform="translate(-193.633,-276.3622)">
	<g id="g3013_1_" transform="translate(119,276.3622)">
		<polygon id="polygon2989_1_" class="st0" points="156,-0.4 148.6,82.1 115.5,91.2 82.5,82.1 75.1,-0.4 		"/>
		<polygon id="polygon2991_1_" class="st1" points="142.3,76.8 148.6,6.3 115.6,6.3 115.6,84.2 		"/>
	</g>
</g>
<path id="XMLID_43_" class="st2" d="M58.1,46.8c-1.8,0-3.3,0.4-4.6,1.1c-0.5-0.9-1-1.8-1-2.4c-0.1-0.7-0.2-1.2-0.1-2
	c0.1-0.9,0.6-2.1,0.6-2.2c0-0.1-0.1-0.5-1.1-0.5s-1.9,0.2-2,0.5c-0.1,0.3-0.3,0.9-0.4,1.5c-0.2,0.9-2.1,4.3-3.1,6
	c-0.3-0.7-0.6-1.3-0.7-1.8c-0.1-0.7-0.2-1.2-0.1-2c0.1-0.9,0.6-2.1,0.6-2.2c0-0.1-0.1-0.5-1.1-0.5c-1,0-1.9,0.2-2,0.5
	c-0.1,0.3-0.2,0.9-0.4,1.5c-0.2,0.6-2.7,6.2-3.4,7.6c-0.3,0.7-0.6,1.3-0.8,1.7c-0.2,0.4,0,0,0,0.1C38.1,54,38,54.2,38,54.2v0
	c-0.1,0.2-0.3,0.5-0.4,0.5c0,0-0.1-0.7,0-1.6c0.4-1.9,1.3-4.9,1.3-5c0,0,0.2-0.6-0.6-0.8c-0.7-0.3-1,0.2-1,0.2
	c-0.1,0-0.1,0.2-0.1,0.2s0.8-3.4-1.5-3.4c-1.5,0-3.5,1.6-4.5,3.1c-0.6,0.3-2,1.1-3.4,1.9c-0.5,0.3-1.1,0.6-1.7,0.9l-0.1-0.1
	c-2.9-3-8.1-5.2-7.9-9.3c0.1-1.5,0.6-5.4,10.1-10.2c7.8-3.9,14.1-2.8,15.2-0.4c1.5,3.4-3.3,9.7-11.5,10.6c-3.1,0.3-4.7-0.8-5.1-1.3
	c-0.4-0.5-0.5-0.5-0.6-0.4c-0.3,0.1-0.1,0.6,0,0.8c0.2,0.6,1.2,1.7,2.9,2.3c1.5,0.5,5.1,0.8,9.5-0.9c4.9-1.9,8.8-7.2,7.6-11.6
	c-1.1-4.5-8.6-6-15.7-3.5c-4.2,1.5-8.8,3.8-12,6.9c-3.9,3.6-4.5,6.8-4.3,8.1c0.9,4.7,7.4,7.8,10,10c-0.1,0.1-0.2,0.1-0.4,0.2
	c-1.3,0.6-6.2,3.2-7.5,6c-1.4,3.1,0.2,5.3,1.3,5.6c3.3,0.9,6.7-0.7,8.6-3.5c1.8-2.7,1.6-6.3,0.8-7.9l0-0.1l1-0.6
	c0.7-0.4,1.3-0.7,1.9-1.1c-0.3,0.9-0.5,1.9-0.7,3.4c-0.1,1.8,0.6,4,1.5,4.9c0.4,0.4,0.9,0.4,1.2,0.4c1.1,0,1.6-0.9,2.1-2
	c0.7-1.3,1.3-2.9,1.3-2.9s-0.7,4.2,1.3,4.2c0.7,0,1.5-1,1.8-1.5v0c0,0,0,0,0.1-0.1c0-0.1,0.1-0.1,0.1-0.2v0c0.3-0.5,1-1.7,2-3.7
	c1.3-2.5,2.5-5.7,2.5-5.7s0.1,0.8,0.5,2.1c0.2,0.8,0.7,1.6,1.1,2.4c-0.3,0.4-0.5,0.7-0.5,0.7l0,0c-0.2,0.3-0.5,0.7-0.8,1
	c-1,1.2-2.2,2.6-2.4,3c-0.2,0.5-0.1,0.8,0.2,1.1c0.3,0.2,0.7,0.2,1.3,0.2c0.9-0.1,1.6-0.3,1.9-0.4c0.5-0.2,1.1-0.4,1.6-0.8
	c1-0.7,1.6-1.8,1.5-3.2c0-0.8-0.3-1.5-0.6-2.2c0.1-0.1,0.2-0.3,0.3-0.4c1.6-2.3,2.8-4.8,2.8-4.8s0.1,0.8,0.5,2.1
	c0.2,0.6,0.6,1.4,0.9,2.1c-1.5,1.2-2.4,2.6-2.7,3.5c-0.6,1.7-0.1,2.5,0.7,2.6c0.4,0.1,0.9-0.1,1.4-0.3c0.5-0.2,1.1-0.5,1.7-0.9
	c1-0.7,2-1.8,1.9-3.2c0-0.6-0.2-1.3-0.4-1.9c1.3-0.5,2.9-0.8,5-0.6c4.4,0.5,5.3,3.3,5.2,4.5c-0.2,1.2-1.1,1.8-1.4,2
	c-0.3,0.2-0.4,0.3-0.4,0.4c0,0.2,0.2,0.2,0.4,0.2c0.4-0.1,2.3-0.9,2.4-3.1C65.3,49.8,62.7,46.8,58.1,46.8L58.1,46.8z M23.8,58.4
	c-1.5,1.6-3.5,2.2-4.4,1.7c-0.9-0.5-0.6-2.9,1.2-4.6c1.1-1,2.5-2,3.5-2.6c0.2-0.1,0.5-0.3,0.9-0.5c0.1,0,0.1-0.1,0.1-0.1
	c0.1,0,0.1-0.1,0.2-0.1C26,54.6,25.4,56.7,23.8,58.4L23.8,58.4z M34.6,51.1c-0.5,1.2-1.6,4.5-2.2,4.3c-0.6-0.1-0.9-2.6-0.1-5
	c0.4-1.2,1.2-2.6,1.7-3.2c0.8-0.9,1.7-1.2,1.9-0.8C36.1,46.8,34.9,50.3,34.6,51.1z M43.4,55.3c-0.2,0.1-0.4,0.2-0.5,0.1
	c-0.1,0,0.1-0.2,0.1-0.2s1.1-1.2,1.5-1.7c0.2-0.3,0.5-0.7,0.9-1.1v0.1C45.4,54,44,54.9,43.4,55.3L43.4,55.3z M50.3,53.8
	c-0.2-0.1-0.1-0.5,0.4-1.6c0.2-0.5,0.7-1.2,1.5-2c0.1,0.3,0.2,0.6,0.1,0.9C52.3,52.8,51,53.5,50.3,53.8z"/>
</svg>
