<?xml version="1.0" encoding="utf-8"?>
<!-- Generator: Adobe Illustrator 19.0.0, SVG Export Plug-In . SVG Version: 6.00 Build 0)  -->
<svg version="1.1" id="Layer_1" xmlns="http://www.w3.org/2000/svg" xmlns:xlink="http://www.w3.org/1999/xlink" x="0px" y="0px"
	 viewBox="-439 235.8 80.5 91.2" style="enable-background:new -439 235.8 80.5 91.2;" xml:space="preserve">
<style type="text/css">
	.st0{fill:#FDAD00;}
	.st1{fill:#FDD231;}
	.st2{fill:#FFFFFF;}
</style>
<g id="layer1_12_" transform="translate(-193.633,-276.3622)">
	<g id="g3013_12_" transform="translate(119,276.3622)">
		<polygon id="polygon2989_12_" class="st0" points="-283.9,236.4 -291.2,318.9 -324.3,328 -357.3,318.9 -364.7,236.4 		"/>
		<polygon id="polygon2991_12_" class="st1" points="-297.5,313.6 -291.2,243.1 -324.3,243.1 -324.3,321 		"/>
	</g>
</g>
<g id="XMLID_1_">
	<path id="XMLID_54_" class="st2" d="M-371.6,274.8C-371.6,274.7-371.6,274.7-371.6,274.8c0-0.2,0-0.3,0-0.4c0,0,0-0.1,0-0.1
		c0-0.1,0-0.1-0.1-0.2c0,0,0-0.1-0.1-0.1c0,0,0,0,0-0.1l-7.4-10.3c-0.1-0.1-0.2-0.2-0.4-0.3c-0.1-0.2-0.3-0.4-0.5-0.5l-9.1-3.9
		c-0.1-0.1-0.3-0.1-0.4-0.1h-19.2c-0.1,0-0.3,0-0.4,0.1l-9.1,3.9c-0.2,0.1-0.4,0.3-0.5,0.5c-0.2,0.1-0.3,0.2-0.4,0.3l-7.4,10.3
		c0,0,0,0,0,0.1c0,0,0,0.1-0.1,0.1c0,0.1,0,0.1-0.1,0.2c0,0,0,0.1,0,0.1c0,0.1,0,0.2,0,0.3c0,0,0,0,0,0.1c0,0.1,0.1,0.2,0.1,0.2
		c0,0,0,0.1,0.1,0.1c0,0,0,0,0,0.1l26.5,33.4c0,0,0,0,0,0c0.1,0.1,0.2,0.2,0.3,0.2c0,0,0,0,0.1,0c0.1,0.1,0.3,0.1,0.4,0.1
		c0.1,0,0.3,0,0.4-0.1c0,0,0,0,0.1,0c0.1-0.1,0.2-0.1,0.3-0.2c0,0,0,0,0,0l26.5-33.4c0,0,0,0,0-0.1c0,0,0-0.1,0.1-0.1
		C-371.6,274.9-371.6,274.9-371.6,274.8z M-408.4,260.8h18.7l7,3l-7.1,3.8h-18.7l-7.1-3.8L-408.4,260.8z M-411.1,285.4h24.1
		l-12,20.6L-411.1,285.4z M-411.1,283.4l3.4-13.7h17.2l4,13.7H-411.1z M-423.8,273.8l6.3-8.8l8,4.3l-3.3,13.4L-423.8,273.8
		C-423.8,273.8-423.8,273.8-423.8,273.8z M-413.8,284.5c0,0.1,0,0.3,0.1,0.4l6.8,11.7l-14.6-18.3L-413.8,284.5z M-391.3,296.6
		l6.8-11.7c0.1-0.1,0.1-0.3,0.1-0.4l7.6-6.2L-391.3,296.6z M-384.8,282.3l-3.8-13l7.9-4.3l6.3,8.8c0,0,0,0-0.1,0L-384.8,282.3z"/>
</g>
</svg>
