<?xml version="1.0" encoding="utf-8"?>
<!-- Generator: Adobe Illustrator 19.0.0, SVG Export Plug-In . SVG Version: 6.00 Build 0)  -->
<svg version="1.1" id="Layer_1" xmlns="http://www.w3.org/2000/svg" xmlns:xlink="http://www.w3.org/1999/xlink" x="0px" y="0px"
	 viewBox="0 0 80.5 91.2" style="enable-background:new 0 0 80.5 91.2;" xml:space="preserve">
<style type="text/css">
	.st0{fill:#1C78C0;}
	.st1{fill:#8ED6FB;}
	.st2{fill:#FFFFFF;}
</style>
<g id="layer1_4_" transform="translate(-193.633,-276.3622)">
	<g id="g3013_4_" transform="translate(119,276.3622)">
		<polygon id="polygon2989_4_" class="st0" points="156.1,0.1 148.8,82.6 115.7,91.7 82.7,82.6 75.3,0.1 		"/>
		<polygon id="polygon2991_4_" class="st1" points="142.5,77.3 148.8,6.8 115.7,6.8 115.7,84.7 		"/>
	</g>
</g>
<path id="XMLID_55_" class="st2" d="M63.9,62.6L40.7,75.7V65.5l14.5-8L63.9,62.6z M65.5,61.1V33.6L57,38.5v17.7L65.5,61.1L65.5,61.1
	z M15.4,62.6l23.3,13.2V65.5l-14.5-8L15.4,62.6L15.4,62.6z M13.8,61.1V33.6l8.5,4.9v17.7L13.8,61.1L13.8,61.1z M14.8,31.8l23.9-13.5
	v9.9l-15.3,8.4l-0.1,0.1L14.8,31.8z M64.5,31.8L40.7,18.3v9.9L56,36.6l0.1,0.1L64.5,31.8z"/>
<path id="XMLID_49_" class="st2" d="M38.6,63.1l-14.3-7.9V39.7L38.6,48V63.1L38.6,63.1z M40.7,63.1L55,55.3V39.7L40.7,48V63.1
	L40.7,63.1z M25.3,37.9L39.7,30L54,37.9l-14.4,8.3L25.3,37.9z"/>
</svg>
