<?xml version="1.0" encoding="utf-8"?>
<!-- Generator: Adobe Illustrator 19.0.0, SVG Export Plug-In . SVG Version: 6.00 Build 0)  -->
<svg height="22px" version="1.1" id="Layer_1" xmlns="http://www.w3.org/2000/svg" xmlns:xlink="http://www.w3.org/1999/xlink" x="0px" y="0px"
	 viewBox="0 0 87.1 14.8" style="enable-background:new 0 0 87.1 14.8;" xml:space="preserve">
<style type="text/css">
	.st0{fill:#039BA0;}
	.st1{fill:#005D60;}
	.st2{fill:#E7B600;}
</style>
<g id="XMLID_41_">
	<path id="XMLID_43_" class="st0" d="M1.8,7.8V7.1l4.5-3V5L2.7,7.5v0l3.6,2.4v0.9L1.8,7.8z"/>
	<path id="XMLID_45_" class="st1" d="M8.4,8.5c0-1.9,1.4-3,3-3C13,5.5,14,6.6,14,8.2c0,0.2,0,0.4,0,0.6H9.4c0.1,1.3,1.1,2,2.3,2
		c0.7,0,1.2-0.2,1.8-0.6l0.4,0.6c-0.6,0.4-1.3,0.7-2.3,0.7C9.8,11.6,8.4,10.5,8.4,8.5z M9.4,8.1h3.7c-0.1-1.2-0.7-1.8-1.7-1.8
		C10.4,6.3,9.6,6.9,9.4,8.1z"/>
	<path id="XMLID_48_" class="st1" d="M17.7,9.5V3.7h-2V2.9h3v6.7c0,0.9,0.5,1.2,1.2,1.2c0.3,0,0.7-0.1,1.1-0.3l0.3,0.7
		c-0.5,0.2-0.9,0.3-1.6,0.3C18.4,11.6,17.7,10.9,17.7,9.5z"/>
	<path id="XMLID_50_" class="st1" d="M22.8,8.5c0-1.9,1.4-3,3-3c1.7,0,2.7,1.1,2.7,2.7c0,0.2,0,0.4,0,0.6h-4.6c0.1,1.3,1.1,2,2.3,2
		c0.7,0,1.2-0.2,1.8-0.6l0.4,0.6c-0.6,0.4-1.3,0.7-2.3,0.7C24.2,11.6,22.8,10.5,22.8,8.5z M23.8,8.1h3.7c-0.1-1.2-0.7-1.8-1.7-1.8
		C24.8,6.3,24,6.9,23.8,8.1z"/>
	<path id="XMLID_53_" class="st1" d="M30.3,5.6h0.8l0.1,1h0c0.6-0.6,1.3-1.1,2.2-1.1c1.4,0,2,0.8,2,2.4v3.6h-1V8
		c0-1.1-0.4-1.6-1.3-1.6c-0.7,0-1.2,0.3-1.8,1.1v4.1h-1V5.6z"/>
	<path id="XMLID_55_" class="st1" d="M37.3,9.9c0-1.3,1.2-1.9,4.2-2.2c0-0.8-0.4-1.5-1.5-1.5c-0.8,0-1.5,0.4-2,0.7l-0.4-0.7
		c0.6-0.4,1.6-0.8,2.6-0.8c1.6,0,2.4,0.9,2.4,2.4v3.6h-0.8l-0.1-0.8h0c-0.6,0.5-1.5,0.9-2.3,0.9C38.2,11.6,37.3,11,37.3,9.9z
		 M41.6,9.9V8.4c-2.5,0.2-3.3,0.7-3.3,1.5c0,0.7,0.6,0.9,1.3,0.9C40.2,10.8,40.9,10.5,41.6,9.9z"/>
	<path id="XMLID_58_" class="st2" d="M44.8,3.6H47c1.6,0,2.7,0.5,2.7,1.9c0,0.8-0.4,1.5-1.4,1.7v0c1.2,0.2,1.8,0.8,1.8,1.9
		c0,1.5-1.2,2.3-3,2.3h-2.4V3.6z M46.8,6.9c1.3,0,1.9-0.4,1.9-1.3c0-0.9-0.6-1.2-1.8-1.2h-1.1v2.5H46.8z M47,10.6
		c1.3,0,2.1-0.4,2.1-1.5c0-1-0.7-1.4-2.1-1.4h-1.3v2.9H47z"/>
	<path id="XMLID_62_" class="st2" d="M52.5,5.6h0.8L53.4,7h0c0.6-0.9,1.5-1.5,2.6-1.5c0.4,0,0.8,0.1,1.2,0.2L57,6.6
		c-0.4-0.1-0.6-0.2-1.1-0.2c-0.9,0-1.7,0.5-2.4,1.7v3.4h-1V5.6z"/>
	<path id="XMLID_64_" class="st2" d="M58.9,9.9c0-1.3,1.2-1.9,4.2-2.2c0-0.8-0.4-1.5-1.5-1.5c-0.8,0-1.5,0.4-2,0.7l-0.4-0.7
		c0.6-0.4,1.6-0.8,2.6-0.8c1.6,0,2.4,0.9,2.4,2.4v3.6h-0.8l-0.1-0.8h0c-0.6,0.5-1.5,0.9-2.3,0.9C59.8,11.6,58.9,11,58.9,9.9z
		 M63.2,9.9V8.4c-2.5,0.2-3.3,0.7-3.3,1.5c0,0.7,0.6,0.9,1.3,0.9C61.8,10.8,62.5,10.5,63.2,9.9z"/>
	<path id="XMLID_67_" class="st2" d="M65.8,5.6h1l1.3,3.3c0.2,0.6,0.5,1.2,0.7,1.7h0c0.2-0.6,0.4-1.1,0.6-1.7l1.3-3.3h0.9l-2.4,5.8
		h-1.1L65.8,5.6z"/>
	<path id="XMLID_69_" class="st2" d="M73.1,8.6c0-2,1.3-3.1,2.9-3.1s2.9,1.1,2.9,3.1c0,1.9-1.3,3-2.9,3S73.1,10.5,73.1,8.6z
		 M77.8,8.6c0-1.3-0.7-2.3-1.9-2.3c-1.1,0-1.9,0.9-1.9,2.3c0,1.3,0.7,2.2,1.9,2.2C77.1,10.8,77.8,9.9,77.8,8.6z"/>
	<path id="XMLID_72_" class="st0" d="M80.8,9.9l3.6-2.4v0L80.8,5V4.1l4.5,3v0.7l-4.5,3V9.9z"/>
</g>
</svg>
