<?xml version="1.0" standalone="no"?>
<!DOCTYPE svg PUBLIC "-//W3C//DTD SVG 20010904//EN"
 "http://www.w3.org/TR/2001/REC-SVG-20010904/DTD/svg10.dtd">
<svg version="1.0" xmlns="http://www.w3.org/2000/svg"
 width="500.000000pt" height="500.000000pt" viewBox="0 0 500.000000 500.000000"
 preserveAspectRatio="xMidYMid meet">
<metadata>
Created by potrace 1.11, written by Peter Selinger 2001-2013
</metadata>
<g transform="translate(0.000000,500.000000) scale(0.100000,-0.100000)"
fill="#000000" stroke="none">
<path d="M1724 4889 c-4 -8 -3 -9 4 -5 7 4 12 3 12 -1 0 -5 10 -14 22 -22 22
-14 22 -13 7 10 -19 28 -35 34 -45 18z"/>
<path d="M1207 4874 c-3 -4 -3 -19 0 -35 6 -31 -10 -41 -21 -13 -4 9 -9 15
-11 12 -3 -3 2 -19 11 -36 8 -18 13 -36 9 -42 -4 -6 1 -7 12 -3 14 5 16 4 7
-8 -5 -8 -9 -20 -8 -26 1 -7 2 -22 3 -33 0 -11 18 -31 41 -46 25 -17 39 -33
37 -43 -2 -9 -9 -15 -16 -13 -9 2 -9 -3 -1 -17 14 -27 13 -30 -8 -24 -13 3
-19 -1 -19 -12 0 -12 7 -15 26 -12 l25 5 -24 -18 c-18 -13 -21 -23 -16 -44 3
-14 2 -26 -3 -26 -6 0 -7 -23 -4 -55 4 -36 2 -55 -5 -55 -6 0 -12 6 -15 13 -4
10 -7 10 -18 0 -9 -10 -10 -13 -1 -13 20 0 14 -17 -8 -23 -11 -3 -20 -10 -20
-16 0 -7 8 -7 26 -1 33 13 41 13 47 -3 3 -9 -5 -13 -27 -14 -17 0 -44 -6 -60
-12 l-30 -12 29 -15 c34 -18 55 -12 55 16 0 11 5 20 10 20 6 0 8 -11 4 -25 -5
-20 -2 -25 12 -26 35 -2 49 3 106 43 59 42 75 65 37 53 -14 -5 -19 -3 -15 3 3
6 30 10 58 10 29 -1 44 -3 33 -5 -11 -3 -24 -10 -30 -15 -7 -7 -2 -9 15 -4 14
3 34 6 45 6 17 0 17 2 5 10 -14 9 22 14 102 14 9 0 15 3 12 8 -3 4 2 8 10 8 9
0 15 -6 14 -12 -2 -8 7 -12 25 -11 15 1 27 0 27 -2 0 -2 -21 -14 -47 -26 -39
-18 -44 -23 -26 -26 12 -2 27 -11 33 -19 12 -13 11 -14 -15 -14 -3 0 -22 -7
-43 -16 -20 -9 -66 -18 -102 -20 -36 -1 -66 -4 -67 -5 -10 -7 -31 -3 -50 9
-13 8 -23 10 -23 6 0 -5 -5 -2 -10 6 -8 13 -10 12 -10 -2 0 -10 -5 -18 -11
-18 -6 0 -1 -15 10 -34 12 -18 21 -36 21 -40 0 -3 -15 -15 -32 -26 -37 -23
-26 -27 12 -5 29 16 44 19 36 6 -3 -5 -29 -20 -58 -34 -67 -32 -104 -65 -113
-97 -5 -23 -5 -23 8 -7 8 9 20 17 26 17 7 0 9 5 6 10 -6 10 7 14 31 11 7 -1
14 5 17 12 6 17 77 60 77 47 0 -5 -11 -17 -25 -26 -31 -20 -26 -30 7 -13 21
11 21 10 -4 -16 -16 -15 -28 -31 -28 -36 0 -5 -12 -15 -27 -23 -16 -8 -47 -32
-70 -54 -23 -21 -44 -34 -46 -29 -2 6 -21 -6 -43 -26 -27 -25 -34 -37 -22 -37
9 0 19 6 21 13 3 6 6 2 6 -10 1 -21 -21 -52 -40 -54 -37 -5 -60 -21 -54 -37 3
-8 0 -20 -7 -25 -9 -6 -8 -7 5 -3 10 3 46 8 80 12 56 5 60 4 43 -9 -11 -8 -27
-12 -35 -10 -9 2 -27 -6 -40 -19 -14 -13 -38 -31 -55 -40 -40 -22 -174 -87
-204 -99 -19 -7 -21 -12 -12 -29 11 -21 35 -27 45 -10 9 15 27 12 19 -2 -4 -7
3 -3 15 10 12 12 28 22 36 22 8 0 15 6 15 13 0 6 14 20 30 29 34 19 42 10 9
-10 -43 -27 -9 -22 44 7 30 16 57 28 60 25 2 -3 28 5 57 16 29 11 55 18 58 15
3 -3 1 -5 -5 -5 -6 0 -22 -9 -36 -21 -22 -16 -24 -23 -14 -34 10 -11 15 -10
31 3 18 16 19 16 13 -1 -6 -15 -4 -16 13 -7 10 6 24 18 29 28 6 10 11 12 11 4
0 -7 -9 -23 -20 -35 l-21 -21 21 -8 c14 -5 31 -2 48 8 19 12 22 12 10 1 -24
-19 -23 -33 3 -51 24 -16 46 -11 70 16 9 10 21 18 26 18 6 0 17 7 24 16 12 15
11 16 -11 9 -24 -7 -24 -7 -5 8 11 8 23 13 26 11 4 -2 14 8 24 22 9 14 19 23
22 20 3 -3 34 21 69 54 66 61 128 104 92 63 -10 -11 -18 -25 -18 -31 0 -7 -3
-12 -8 -12 -4 0 -13 -13 -20 -30 -8 -16 -38 -51 -68 -76 -30 -26 -54 -53 -54
-60 0 -16 -16 -19 -25 -5 -3 6 3 14 12 20 10 5 15 12 12 15 -3 4 -23 -10 -44
-29 l-38 -36 54 7 c52 7 75 20 172 94 15 12 27 26 27 32 0 6 -9 3 -20 -7 -20
-18 -21 -18 -14 1 4 10 12 22 18 26 6 4 11 13 11 20 1 7 6 12 13 11 6 -2 9 4
6 12 -4 9 0 15 10 15 25 0 122 63 105 69 -8 2 0 9 21 17 l35 12 -45 2 c-39 2
-42 3 -20 10 21 8 19 9 -14 7 -24 -1 -41 3 -44 11 -2 7 5 12 17 12 11 0 23 5
27 11 5 9 -1 10 -21 5 -74 -19 -84 -19 -81 -1 1 9 9 21 17 26 22 14 -5 11 -42
-6 -19 -8 -27 -14 -19 -15 13 0 13 -1 0 -10 -8 -5 -22 -10 -30 -10 -13 0 -13
1 0 11 11 8 3 9 -30 5 -50 -7 -131 12 -138 32 -3 11 0 11 15 2 16 -10 29 -8
79 16 32 16 64 28 69 29 6 0 21 6 34 14 13 7 45 15 70 18 25 2 71 11 101 20
30 9 69 17 85 19 53 7 140 37 153 53 7 9 16 16 20 16 14 1 47 24 41 29 -3 4
-28 2 -55 -4 -41 -8 -67 -9 -116 -1 -24 3 0 20 52 35 34 10 59 21 56 23 -6 6
-157 -18 -176 -28 -11 -6 -8 -8 12 -9 15 0 29 -4 32 -8 8 -13 -62 -6 -89 8
-22 12 -32 11 -73 -2 -62 -21 -115 -30 -107 -18 3 5 -7 5 -27 0 -33 -10 -53
-5 -24 6 11 4 13 10 7 18 -7 8 10 11 62 12 107 1 258 20 292 37 43 22 119 52
122 49 4 -3 104 47 120 60 10 8 10 15 1 32 -11 21 -11 21 11 2 11 -11 24 -16
28 -12 5 4 0 12 -10 17 -9 6 -17 19 -17 30 0 13 4 18 13 13 6 -4 1 5 -13 20
-24 26 -25 27 -40 9 -16 -19 -57 -32 -45 -14 3 6 13 11 21 11 13 0 18 12 15
33 0 4 4 7 10 7 11 0 39 24 39 34 0 3 -9 10 -20 16 -16 9 -19 8 -14 -7 5 -17
5 -17 -9 0 -17 20 -63 23 -70 3 -3 -7 -16 -12 -29 -11 -13 1 -29 3 -36 4 -7 0
-10 6 -7 11 4 6 -9 10 -32 10 l-38 0 28 24 c15 13 27 28 27 34 0 12 79 10 99
-2 14 -9 14 6 1 22 -7 9 -7 9 2 2 7 -5 19 -10 28 -10 9 0 2 11 -20 30 -25 21
-42 29 -60 25 -14 -2 -19 -2 -12 1 8 4 4 12 -14 26 -21 17 -30 19 -50 9 -35
-15 -54 -13 -24 3 37 20 74 30 66 18 -3 -5 5 -17 19 -26 23 -15 27 -15 49 0
24 15 26 44 4 44 -6 0 -8 6 -5 14 3 8 -2 16 -15 19 -11 3 -17 10 -13 16 3 6 1
11 -5 11 -6 0 -9 4 -6 8 6 10 -59 74 -92 91 -12 7 -20 16 -17 20 3 5 -2 12
-11 15 -22 8 -26 8 -19 -4 4 -7 -2 -9 -19 -4 -31 7 -34 -6 -6 -24 23 -14 26
-29 5 -29 -8 0 -12 3 -10 7 5 9 -61 40 -69 33 -14 -14 -5 -45 14 -50 34 -9 22
-19 -17 -14 -21 2 -32 6 -25 8 6 3 10 9 7 13 -3 5 -6 24 -7 43 -1 31 -4 33
-32 32 -37 -1 -99 -41 -89 -57 4 -7 0 -9 -9 -5 -10 3 -15 0 -14 -11 1 -12 -6
-16 -23 -14 -16 1 -34 -10 -62 -40 -21 -24 -37 -36 -34 -27 4 9 -4 20 -20 29
-30 16 -31 21 -5 38 22 13 27 3 8 -16 -9 -9 -8 -12 4 -12 8 0 21 7 28 15 6 8
15 14 18 13 21 -2 23 4 6 17 -21 16 -38 20 -30 7 3 -5 -8 -9 -25 -9 -17 0 -35
-7 -43 -18 -9 -12 -15 -15 -20 -7 -9 16 1 31 28 42 l21 9 -22 0 c-12 1 -26 -6
-31 -15 -6 -10 -12 -13 -16 -6 -3 5 -16 8 -28 5 -14 -4 -26 0 -35 13 -11 15
-17 17 -33 6 -27 -16 -35 -15 -20 3 11 13 9 19 -8 35 -23 22 -26 23 -35 14z
m508 -35 c11 -17 -1 -21 -15 -4 -8 9 -8 15 -2 15 6 0 14 -5 17 -11z m80 -37
c-7 -8 -35 7 -35 18 0 6 7 6 20 -2 10 -7 17 -14 15 -16z m-75 -6 c0 -3 -4 -8
-10 -11 -5 -3 -10 -1 -10 4 0 6 5 11 10 11 6 0 10 -2 10 -4z m-92 -39 c25 4
24 3 -7 -12 -45 -21 -54 -19 -40 7 7 13 14 18 16 12 2 -6 16 -9 31 -7z m135
-16 c3 -14 1 -18 -9 -14 -15 6 -18 16 -7 26 9 10 10 9 16 -12z m-383 -5 c0 -3
-4 -8 -10 -11 -5 -3 -10 -1 -10 4 0 6 5 11 10 11 6 0 10 -2 10 -4z m367 -23
c3 -8 17 -19 32 -25 l26 -11 -30 -8 c-16 -5 -32 -5 -35 0 -14 22 -50 21 -95
-4 -26 -15 -50 -24 -53 -20 -3 3 4 8 16 12 25 6 30 23 6 23 -8 0 -12 5 -9 10
4 6 11 8 16 5 5 -3 6 1 3 9 -7 17 11 22 21 6 9 -15 35 -12 35 4 0 19 60 18 67
-1z m63 -13 c24 -15 7 -19 -20 -5 -15 8 -19 14 -10 14 8 1 22 -3 30 -9z m50
-34 c-7 -7 -14 -6 -21 1 -9 9 -7 12 9 10 14 -1 18 -5 12 -11z m-150 -4 c0 -5
-7 -9 -15 -9 -8 0 -15 4 -15 9 0 4 7 8 15 8 8 0 15 -4 15 -8z m25 -12 c-9 -14
8 -13 23 2 7 7 15 8 20 3 4 -6 5 -9 3 -7 -2 1 -11 -4 -20 -12 -9 -8 -32 -17
-51 -20 -31 -5 -32 -5 -12 6 12 6 22 17 22 25 0 7 5 13 11 13 5 0 7 -4 4 -10z
m-135 -87 c14 -6 34 -15 45 -19 17 -6 18 -8 3 -11 -18 -5 -73 20 -84 38 -4 6
-3 10 2 7 5 -2 20 -9 34 -15z m-270 -18 c-7 -8 -17 -15 -22 -15 -6 0 -5 7 2
15 7 8 17 15 22 15 6 0 5 -7 -2 -15z m685 -13 c-3 -3 -11 0 -18 7 -9 10 -8 11
6 5 10 -3 15 -9 12 -12z m-80 -12 c4 -6 -7 -10 -25 -10 -21 0 -29 -4 -24 -12
4 -7 3 -8 -4 -4 -19 11 -14 24 11 29 12 2 25 5 29 6 4 0 10 -3 13 -9z m-133
-62 c-7 -7 -12 -8 -12 -2 0 14 12 26 19 19 2 -3 -1 -11 -7 -17z m163 -48 c-6
-10 -71 -40 -84 -40 -5 1 79 48 87 50 2 0 0 -5 -3 -10z m95 -2 c0 -6 -3 -8 -7
-5 -3 4 -12 2 -20 -5 -11 -8 -12 -7 -7 6 7 18 34 22 34 4z m-55 -28 c3 -6 -4
-10 -17 -10 -18 0 -20 2 -8 10 19 12 18 12 25 0z m65 -55 c14 -1 33 -3 43 -4
17 -1 17 -2 3 -17 -9 -8 -20 -12 -26 -9 -26 16 -58 14 -75 -5 -11 -12 -14 -20
-6 -20 7 0 9 -4 6 -10 -9 -14 -25 -12 -22 3 1 7 -7 11 -23 10 -25 -2 -20 0 30
19 l25 10 -27 14 c-39 20 -35 28 10 19 20 -5 48 -9 62 -10z m-15 -55 c-3 -5
-10 -10 -16 -10 -5 0 -9 5 -9 10 0 6 7 10 16 10 8 0 12 -4 9 -10z m-845 -24
c0 -11 -19 -15 -25 -6 -3 5 1 10 9 10 9 0 16 -2 16 -4z m134 -62 c3 -8 2 -12
-4 -9 -6 3 -10 10 -10 16 0 14 7 11 14 -7z m86 -9 c-7 -8 -17 -15 -22 -15 -6
0 -5 7 2 15 7 8 17 15 22 15 6 0 5 -7 -2 -15z m80 -65 c0 -13 -11 -13 -30 0
-12 8 -11 10 8 10 12 0 22 -4 22 -10z m317 -55 c-2 -11 -25 -23 -45 -24 -7 -1
-11 3 -8 8 4 5 -6 14 -21 20 -25 9 -22 10 24 8 28 -1 51 -6 50 -12z m-247 0
c0 -2 -22 -16 -50 -30 -27 -14 -50 -22 -50 -18 0 5 20 18 43 30 43 22 57 27
57 18z m-105 -25 c-3 -5 -12 -10 -18 -10 -7 0 -6 4 3 10 19 12 23 12 15 0z
m232 -6 c-3 -3 -12 -4 -19 -1 -8 3 -5 6 6 6 11 1 17 -2 13 -5z m-147 -20 c0
-11 -45 -43 -60 -44 -9 0 -25 -7 -38 -15 -39 -28 -15 8 26 37 34 25 72 37 72
22z m35 -43 c-25 -24 -108 -62 -128 -58 -21 3 -21 4 -2 11 11 4 45 18 75 31
63 27 68 28 55 16z m-160 -81 c-27 -12 -43 -12 -25 0 8 5 22 9 30 9 10 0 8 -3
-5 -9z m-80 -100 c-3 -5 -12 -10 -18 -10 -7 0 -6 4 3 10 19 12 23 12 15 0z
m287 -22 c23 4 31 -13 13 -28 -10 -9 -15 -9 -15 -1 0 14 -37 15 -45 1 -3 -5
-16 -10 -29 -10 -12 0 -28 -6 -34 -12 -10 -10 -17 -10 -31 -1 -14 9 -25 8 -50
-8 -34 -21 -61 -25 -61 -9 0 6 2 10 5 10 2 0 27 9 55 20 28 11 49 16 45 10 -8
-13 4 -13 43 1 18 6 30 15 27 19 -6 10 35 19 50 11 6 -3 17 -4 27 -3z m73 -8
c-3 -5 -11 -10 -16 -10 -6 0 -7 5 -4 10 3 6 11 10 16 10 6 0 7 -4 4 -10z
m-195 -90 c-19 -17 -38 -30 -42 -30 -3 0 -8 -8 -10 -17 -3 -17 -4 -17 -10 -1
-5 12 5 26 40 51 56 41 71 38 22 -3z m-50 1 c-19 -16 -41 -26 -48 -23 -10 3 0
13 29 28 58 30 61 29 19 -5z m-105 -7 c-8 -9 -39 -17 -72 -19 -39 -3 -53 -1
-43 5 8 5 29 10 45 10 17 0 39 7 49 15 24 18 41 9 21 -11z m21 -39 c-8 -8 -30
-15 -48 -14 l-33 1 33 8 c18 4 36 10 39 14 4 3 10 6 15 6 5 0 3 -7 -6 -15z
m52 -12 c-12 -12 -141 -64 -157 -63 -14 1 34 30 49 30 10 0 35 13 56 29 40 29
80 33 52 4z m-153 -13 c-3 -5 -13 -10 -21 -10 -8 0 -12 5 -9 10 3 6 13 10 21
10 8 0 12 -4 9 -10z"/>
<path d="M1700 4710 c8 -5 22 -9 30 -9 10 0 8 3 -5 9 -27 12 -43 12 -25 0z"/>
<path d="M2102 4864 c-10 -11 -10 -14 1 -14 8 0 22 -9 32 -20 14 -15 15 -20 4
-20 -23 0 -123 18 -144 26 -16 6 -15 2 8 -23 15 -16 25 -32 22 -34 -3 -3 6
-16 20 -29 14 -13 28 -20 32 -17 3 4 -6 18 -20 31 -31 29 -33 36 -12 36 8 0
15 -8 15 -17 0 -15 2 -16 10 -3 6 9 10 10 10 3 0 -6 9 -14 19 -18 10 -3 22
-16 25 -28 5 -17 8 -19 15 -8 5 8 7 20 4 28 -7 18 11 16 50 -3 l32 -17 -20 23
-20 23 24 -13 c20 -10 23 -10 19 1 -23 62 -23 62 22 30 23 -16 48 -27 56 -24
9 3 26 0 40 -7 13 -8 26 -11 29 -8 3 3 -20 20 -51 38 -31 17 -52 35 -47 38 6
4 -15 7 -47 7 -32 1 -64 5 -71 11 -25 19 -44 22 -57 8z"/>
<path d="M2330 4871 c0 -5 -10 -7 -22 -4 -20 4 -20 3 -6 -6 9 -6 23 -8 32 -5
18 7 22 24 6 24 -5 0 -10 -4 -10 -9z"/>
<path d="M2368 4863 c7 -3 16 -2 19 1 4 3 -2 6 -13 5 -11 0 -14 -3 -6 -6z"/>
<path d="M2430 4841 c0 -15 28 -33 47 -30 10 1 31 -3 46 -9 16 -7 33 -12 40
-12 16 0 -35 45 -53 46 -8 1 -24 5 -34 10 -15 6 -17 4 -11 -7 6 -11 5 -12 -6
-1 -15 14 -29 16 -29 3z"/>
<path d="M1530 4830 c-13 -8 -12 -10 3 -10 9 0 17 5 17 10 0 12 -1 12 -20 0z"/>
<path d="M2397 4834 c-3 -4 1 -13 9 -21 19 -20 26 -13 10 9 -7 10 -16 15 -19
12z"/>
<path d="M2490 4791 c0 -8 41 -23 47 -17 2 1 -8 8 -22 14 -14 6 -25 8 -25 3z"/>
<path d="M1480 4755 c-7 -9 -11 -18 -8 -20 3 -3 11 1 18 10 7 9 11 18 8 20 -3
3 -11 -1 -18 -10z"/>
<path d="M2095 4730 c-3 -5 -1 -10 4 -10 6 0 11 5 11 10 0 6 -2 10 -4 10 -3 0
-8 -4 -11 -10z"/>
<path d="M2240 4720 c0 -5 5 -10 11 -10 5 0 7 5 4 10 -3 6 -8 10 -11 10 -2 0
-4 -4 -4 -10z"/>
<path d="M2389 4716 c6 -7 22 -11 36 -8 38 7 30 22 -11 22 -30 0 -34 -3 -25
-14z"/>
<path d="M2505 4720 c-4 -7 -3 -16 2 -21 13 -13 65 0 60 15 -5 15 -53 20 -62
6z"/>
<path d="M2470 4710 c0 -5 5 -10 10 -10 6 0 10 5 10 10 0 6 -4 10 -10 10 -5 0
-10 -4 -10 -10z"/>
<path d="M2708 4693 c-10 -2 -18 -8 -18 -13 0 -10 38 -1 46 11 5 9 1 10 -28 2z"/>
<path d="M2566 4683 c-4 -4 -24 -8 -44 -9 -54 -3 -54 -3 -46 -15 3 -6 19 -9
35 -7 15 3 26 2 24 -2 -6 -10 93 -43 105 -35 6 3 8 10 5 15 -10 16 34 -2 51
-21 18 -21 49 -25 59 -9 3 6 18 7 33 4 l27 -5 -27 18 c-16 10 -28 22 -28 27 0
4 7 3 15 -4 11 -10 18 -9 30 3 20 20 4 31 -43 29 -41 -2 -52 -9 -32 -22 13 -8
13 -10 -1 -10 -9 0 -24 9 -34 19 -12 15 -28 19 -59 18 -23 -2 -48 -7 -55 -12
-11 -6 -13 -4 -8 8 7 18 5 21 -7 10z"/>
<path d="M2312 4638 c2 -6 10 -14 18 -16 7 -3 10 0 6 7 -4 6 -1 11 8 11 9 0
16 -4 16 -9 0 -5 8 -12 17 -15 15 -6 15 -4 -2 14 -19 21 -69 28 -63 8z"/>
<path d="M2037 4604 c-9 -9 31 -43 60 -50 12 -4 21 -10 18 -14 -3 -4 3 -14 13
-21 15 -12 16 -12 4 2 -10 14 -10 18 2 22 7 3 19 0 25 -6 8 -8 11 -8 11 0 0 6
-7 16 -15 23 -12 10 -15 10 -15 -1 -1 -10 -4 -9 -14 4 -7 9 -18 17 -24 17 -6
0 -12 4 -14 9 -4 12 -43 23 -51 15z"/>
<path d="M2540 4602 c0 -12 79 -52 101 -52 11 0 11 2 1 8 -7 5 -11 15 -9 23 2
8 2 11 0 7 -6 -11 -31 -10 -35 1 -5 14 -58 25 -58 13z"/>
<path d="M2376 4589 c3 -5 14 -14 24 -19 16 -8 18 -7 14 4 -3 8 -14 16 -25 19
-10 3 -17 1 -13 -4z"/>
<path d="M2319 4546 c7 -8 8 -16 4 -18 -4 -3 -3 -4 3 -2 12 3 60 -56 56 -68
-1 -5 3 -8 10 -8 6 0 20 -7 30 -17 10 -9 20 -14 23 -12 5 6 -119 139 -130 139
-4 0 -2 -6 4 -14z"/>
<path d="M2928 4548 c9 -9 15 -9 24 0 9 9 7 12 -12 12 -19 0 -21 -3 -12 -12z"/>
<path d="M2470 4535 c7 -8 16 -13 20 -10 4 3 13 -2 20 -10 7 -8 16 -12 21 -9
5 3 9 0 9 -5 0 -6 5 -11 11 -11 5 0 7 5 4 10 -3 6 1 10 9 10 8 0 13 -6 11 -12
-3 -7 14 -26 38 -42 l42 -29 -33 35 c-18 19 -30 37 -26 40 3 4 -4 12 -16 18
-17 9 -24 9 -30 0 -10 -16 -16 -14 -47 10 -30 23 -51 27 -33 5z"/>
<path d="M2890 4542 c0 -5 -10 -14 -22 -20 -21 -10 -21 -11 12 -12 19 -1 45
-3 57 -4 12 -1 20 1 17 6 -3 4 -12 8 -20 8 -8 0 -17 7 -20 15 -7 16 -24 21
-24 7z"/>
<path d="M2090 4510 c0 -5 7 -10 16 -10 8 0 12 5 9 10 -3 6 -10 10 -16 10 -5
0 -9 -4 -9 -10z"/>
<path d="M2226 4511 c-3 -5 1 -11 9 -14 9 -4 12 -1 8 9 -6 16 -10 17 -17 5z"/>
<path d="M2697 4485 c20 -27 71 -55 101 -55 11 0 26 -8 33 -17 12 -15 12 -16
-6 -9 -14 5 -17 4 -9 -4 11 -11 44 -4 44 10 0 5 10 6 22 2 14 -3 19 -2 14 6
-4 7 -20 12 -35 12 -16 0 -40 9 -55 21 -19 15 -24 16 -20 5 5 -14 2 -13 -28 1
-18 9 -39 25 -46 35 -7 10 -18 18 -23 18 -5 0 -2 -11 8 -25z"/>
<path d="M2616 4482 c58 -48 156 -119 184 -134 17 -10 28 -22 25 -28 -4 -6 -3
-9 2 -8 11 3 47 -18 101 -58 24 -19 61 -43 81 -53 83 -42 102 -53 98 -58 -8
-7 -68 21 -130 61 -32 21 -61 35 -64 33 -2 -3 8 -13 24 -23 15 -10 45 -35 67
-57 25 -25 44 -36 54 -32 9 3 13 3 9 -1 -4 -4 5 -23 20 -43 29 -38 22 -35 -51
26 -7 6 -16 9 -19 6 -3 -3 -32 11 -64 30 -32 19 -81 46 -110 61 -29 14 -80 44
-115 66 -34 23 -64 36 -66 30 -5 -14 -22 -2 -18 13 1 7 1 9 -1 5 -3 -5 -13 -8
-23 -8 -10 0 -22 -4 -25 -10 -3 -5 -16 -10 -28 -9 -19 0 -19 2 6 11 31 11 34
20 12 38 -8 7 -12 16 -9 21 3 5 -4 9 -15 9 -11 0 -23 5 -26 10 -3 6 -16 10
-28 10 -20 -1 -20 -2 6 -16 37 -20 34 -23 -13 -19 -28 3 -38 0 -34 -7 5 -7 1
-9 -9 -5 -10 3 -17 2 -17 -2 0 -5 12 -13 28 -19 15 -5 38 -19 51 -31 13 -11
30 -21 36 -21 7 0 20 -11 28 -24 9 -13 45 -38 81 -56 65 -33 87 -54 45 -43
-12 4 -25 0 -31 -8 -7 -10 -8 -8 -3 8 6 21 4 22 -27 18 -18 -3 -27 -3 -20 1 6
3 12 9 12 14 0 14 -72 51 -87 46 -8 -3 -12 -2 -9 3 3 5 -11 19 -32 31 -20 12
-38 21 -39 19 -1 -2 -12 6 -25 17 -13 12 -34 27 -48 33 -23 11 -23 11 -7 -3
14 -11 15 -15 5 -19 -7 -2 -6 -3 3 -2 17 2 52 -29 43 -38 -3 -2 9 -16 26 -31
17 -14 29 -30 26 -35 -9 -14 121 -141 145 -141 6 0 22 -9 36 -20 34 -26 52
-26 22 1 -13 11 -19 19 -14 16 6 -2 26 -11 45 -20 19 -9 54 -21 78 -27 24 -6
50 -14 59 -17 11 -4 14 -2 9 5 -4 7 -2 12 5 12 15 0 4 13 -14 16 -46 8 -185
90 -172 102 2 3 31 -9 62 -26 32 -17 80 -36 106 -43 27 -6 45 -15 40 -18 -4
-3 -9 -20 -9 -38 -2 -25 1 -30 14 -25 14 5 15 4 2 -10 -14 -14 -17 -14 -40 2
-30 20 -113 44 -132 38 -7 -3 15 -13 50 -23 103 -29 65 -30 -53 -1 -5 2 -27 6
-48 11 -20 4 -41 13 -45 19 -10 17 -54 46 -70 46 -23 0 -7 -23 16 -25 13 -1
28 -7 35 -14 9 -10 7 -11 -13 -7 -14 3 -51 10 -82 16 -32 6 -58 14 -58 17 0 3
17 2 38 -2 l37 -7 -24 26 c-14 14 -30 26 -37 26 -7 0 -14 4 -16 9 -1 5 -27 21
-57 36 -49 24 -55 25 -69 11 -10 -10 -12 -16 -5 -16 7 0 15 5 18 10 4 6 11 8
17 4 5 -4 -2 -18 -18 -35 l-28 -29 24 0 c21 0 19 -3 -15 -21 -22 -11 -47 -28
-55 -36 -9 -10 -10 -13 -2 -8 9 5 12 1 10 -11 -2 -14 2 -18 16 -16 11 2 15 -1
11 -7 -10 -18 4 -13 64 21 42 23 52 26 39 11 -10 -11 -18 -25 -18 -32 0 -7 -4
-9 -10 -6 -5 3 -10 2 -10 -3 0 -5 -29 -26 -65 -47 -64 -38 -108 -75 -88 -75 5
0 18 9 28 20 21 23 44 28 25 5 -6 -8 -9 -19 -5 -25 4 -7 -13 -31 -40 -56 -37
-36 -45 -41 -40 -22 4 13 13 26 19 30 33 20 50 37 43 44 -4 4 -19 -3 -33 -17
l-27 -24 7 28 c4 17 3 26 -2 23 -13 -8 -22 -46 -11 -46 5 0 2 -11 -7 -25 -9
-14 -22 -25 -30 -25 -7 0 -17 -6 -21 -14 -13 -22 -51 -38 -56 -23 -4 8 -6 9
-6 0 -1 -6 6 -18 14 -27 14 -13 14 -16 -3 -25 -11 -6 -21 -9 -23 -7 -2 2 -17
6 -34 10 -19 4 -25 3 -16 -2 11 -8 10 -14 -4 -36 -10 -14 -21 -26 -26 -26 -5
0 -5 -8 -2 -17 5 -12 2 -15 -10 -10 -17 6 -21 -1 -18 -35 1 -9 -7 -22 -18 -27
-30 -16 -33 -13 -10 10 30 30 16 35 -20 8 -59 -43 -39 -13 30 45 108 92 79 96
-33 4 -26 -21 -50 -38 -55 -38 -4 0 0 5 9 11 10 5 23 20 30 32 11 21 10 21 -8
7 -10 -8 -21 -18 -24 -21 -9 -11 -71 -28 -83 -23 -14 5 -62 -44 -53 -53 3 -3
-12 -17 -32 -30 -20 -14 -40 -31 -45 -39 -4 -7 -14 -11 -22 -8 -8 4 -15 1 -15
-6 0 -6 5 -8 10 -5 6 3 10 2 10 -3 0 -4 -17 -18 -39 -30 -21 -12 -45 -30 -52
-39 -10 -12 -5 -11 17 4 36 26 132 62 100 37 -11 -7 -26 -14 -33 -14 -7 0 -17
-9 -23 -20 -6 -11 -15 -18 -19 -15 -8 4 -81 -58 -81 -69 0 -11 16 -6 36 12 43
39 56 41 15 3 -24 -23 -46 -40 -48 -37 -2 2 -14 -6 -27 -18 -12 -11 -31 -26
-42 -33 -15 -10 -15 -11 -1 -7 23 8 22 -9 -3 -31 -11 -10 -20 -23 -20 -29 0
-6 14 4 30 22 31 34 37 34 20 1 -9 -15 -7 -19 5 -19 9 0 13 -5 10 -11 -4 -6
-13 -8 -21 -5 -7 3 -16 1 -19 -3 -3 -5 -15 -7 -26 -4 -23 6 -45 -15 -75 -70
-15 -27 -15 -28 13 -22 l28 7 -25 -14 c-14 -7 -25 -20 -25 -28 0 -20 -18 -32
-26 -18 -4 6 -14 -2 -23 -21 -9 -17 -15 -31 -12 -31 2 0 0 -15 -4 -34 -20 -88
37 -295 81 -296 4 0 9 18 13 39 11 71 102 142 120 95 3 -9 -1 -36 -9 -61 -9
-25 -13 -48 -10 -51 3 -3 27 15 53 41 30 29 54 45 63 42 16 -7 60 -74 79 -122
7 -20 19 -33 30 -33 16 0 17 5 8 47 -10 44 -9 48 16 70 36 31 46 29 46 -7 0
-41 25 -87 51 -95 18 -6 64 7 119 34 33 17 43 79 30 184 -7 53 -16 97 -21 97
-13 0 -11 74 2 107 7 15 17 42 24 58 7 17 16 41 20 55 12 39 45 103 69 130 19
22 17 22 -18 -5 -51 -37 -36 -12 26 43 26 24 46 48 43 52 -3 5 3 15 13 22 10
7 24 24 31 36 7 13 15 21 19 18 3 -4 16 4 29 16 13 12 23 18 23 14 0 -5 7 -2
16 5 9 7 25 14 37 16 11 2 25 7 31 12 6 4 45 8 86 9 41 0 101 3 133 7 45 5 57
4 55 -7 -2 -10 9 -12 45 -10 38 3 47 1 47 -12 0 -10 9 -16 25 -16 14 0 35 -9
47 -20 12 -11 28 -20 35 -20 7 0 10 -6 7 -15 -5 -11 2 -15 27 -15 31 0 32 -1
13 -15 -10 -8 -14 -15 -9 -14 18 4 45 -13 39 -23 -4 -6 0 -14 7 -19 12 -7 11
-9 -1 -9 -9 -1 -5 -6 10 -15 14 -8 20 -14 14 -15 -6 0 -10 -10 -8 -22 1 -13 3
-29 3 -37 1 -7 7 -11 15 -8 11 5 13 -3 9 -36 -2 -23 -6 -44 -9 -48 -2 -4 0 -9
6 -11 5 -1 -20 -3 -58 -3 -37 0 -57 1 -44 3 12 2 22 8 22 13 0 12 -67 12 -75
-1 -3 -5 -11 -10 -17 -10 -6 0 -3 9 6 19 17 19 17 19 -3 14 -12 -3 -24 -9 -27
-14 -9 -15 -24 -10 -18 6 4 10 0 15 -15 15 -12 0 -21 4 -21 9 0 13 -160 3
-225 -14 -32 -8 -61 -13 -63 -10 -3 2 -16 -5 -30 -15 -13 -11 -33 -20 -42 -20
-10 0 -20 -10 -24 -22 -5 -18 -8 -20 -15 -9 -11 17 -55 -4 -44 -22 5 -8 2 -8
-9 1 -14 11 -16 6 -23 -43 -4 -36 -10 -53 -17 -48 -8 4 -9 0 -5 -11 5 -13 3
-17 -7 -13 -9 4 -13 1 -11 -6 2 -7 6 -49 9 -95 3 -61 9 -89 22 -103 25 -28 41
-24 60 17 14 28 21 34 38 30 12 -3 27 -6 34 -6 9 0 11 -7 7 -20 -6 -17 -2 -20
30 -20 20 0 34 4 30 9 -3 5 -1 12 4 15 5 4 12 2 16 -4 3 -5 13 -10 20 -10 11
0 13 8 9 30 -5 24 -1 34 26 59 18 16 43 31 56 34 21 4 24 1 24 -29 0 -43 42
-94 78 -94 15 0 46 9 70 20 23 11 40 15 36 9 -19 -31 -186 -78 -248 -70 -11 2
-16 -2 -11 -9 4 -6 19 -10 33 -9 46 3 82 -1 82 -9 0 -15 -104 -12 -147 4 -65
25 -74 10 -11 -19 114 -54 208 -58 298 -12 48 25 110 77 110 93 0 5 10 13 23
17 12 4 27 9 32 11 51 19 125 30 134 21 7 -7 12 -5 17 7 3 9 26 25 50 36 23
11 46 25 49 30 4 6 10 8 15 5 5 -3 22 2 37 12 15 10 24 13 20 6 -6 -9 1 -11
23 -8 17 2 28 0 24 -6 -3 -5 -9 -7 -14 -4 -13 8 1 -33 16 -46 8 -6 14 -18 14
-25 0 -8 6 -14 13 -14 8 0 7 -4 -3 -10 -13 -8 -13 -10 -1 -10 11 0 10 -3 -3
-13 -23 -17 -49 -87 -32 -87 6 0 -2 -11 -18 -23 -19 -15 -25 -26 -18 -31 12
-7 -5 -31 -65 -93 -17 -18 -29 -33 -27 -33 3 0 -13 -17 -36 -38 -22 -22 -40
-42 -40 -47 0 -4 -17 -25 -38 -46 -50 -50 -108 -164 -104 -204 5 -38 8 -41 28
-24 16 13 16 12 6 -7 -6 -12 -8 -25 -4 -29 4 -5 1 -5 -5 -1 -7 4 -13 2 -13 -4
0 -6 -5 -8 -10 -5 -6 4 -9 1 -8 -7 2 -7 -3 -12 -9 -10 -7 1 -13 -5 -13 -14 0
-10 7 -14 23 -12 13 2 21 -2 19 -9 -1 -7 2 -13 8 -13 5 0 10 -4 10 -10 0 -5
-7 -7 -16 -3 -9 3 -13 12 -9 22 5 12 4 13 -6 4 -10 -10 -9 -16 2 -30 7 -10 9
-15 5 -11 -12 10 -36 -10 -36 -29 0 -10 7 -13 23 -8 19 5 20 4 5 -5 -28 -18
-41 -49 -28 -66 7 -7 16 -11 21 -8 5 3 9 -2 9 -10 0 -19 16 -21 24 -3 6 13 -4
-30 -12 -52 -3 -8 -1 -12 4 -8 6 3 10 -2 11 -12 1 -15 -5 -17 -29 -15 -26 3
-30 1 -25 -17 4 -16 3 -18 -8 -9 -7 6 -11 20 -8 31 5 16 2 20 -12 17 -11 -2
-22 -16 -27 -36 -6 -22 -18 -36 -34 -43 -17 -6 -24 -14 -20 -24 4 -10 -6 -20
-29 -29 -19 -8 -35 -19 -35 -23 1 -20 18 -33 34 -27 16 6 17 4 7 -14 -15 -29
-14 -52 4 -52 12 0 11 -7 -6 -40 -11 -21 -18 -44 -14 -50 9 -14 -8 -13 -24 3
-11 10 -12 7 -6 -13 4 -14 4 -22 0 -18 -10 9 -30 -12 -39 -40 -4 -12 -13 -22
-21 -22 -7 0 -15 -7 -19 -15 -3 -8 -12 -15 -21 -15 -8 0 -15 -5 -15 -11 0 -18
-43 -48 -80 -55 -19 -3 -45 -12 -57 -20 -17 -10 -23 -11 -27 -1 -5 9 -7 9 -12
0 -4 -8 -15 -11 -31 -7 -17 5 -24 3 -20 -3 9 -15 -60 -24 -175 -25 -54 0 -98
-4 -98 -8 0 -14 48 -51 81 -61 44 -13 245 -2 327 18 86 21 105 11 168 -85 128
-196 203 -371 204 -474 0 -30 7 -42 43 -73 l42 -37 9 26 c6 14 16 26 23 26 7
0 13 6 13 13 0 7 12 25 28 39 23 21 40 30 92 43 19 4 98 50 111 64 21 23 78
141 67 141 -5 0 3 12 17 27 14 15 26 31 26 35 1 5 2 13 3 18 0 6 16 24 34 39
17 16 32 34 32 40 0 6 3 11 8 11 4 0 23 10 42 22 19 12 37 22 40 23 7 0 69 25
105 40 16 8 35 10 42 6 9 -4 39 18 86 63 90 88 113 102 126 79 8 -15 10 -15
25 0 25 24 54 30 87 16 42 -17 50 -3 34 56 -50 189 -86 332 -100 405 -18 88
-18 79 17 300 5 36 13 106 18 155 7 84 32 168 113 390 16 44 51 214 45 220 -2
2 -14 -22 -26 -53 -49 -127 -45 -120 -50 -94 -4 28 26 169 38 177 4 3 11 24
15 48 4 23 13 52 21 64 9 15 14 53 14 110 1 48 5 108 11 133 20 90 22 154 5
195 -11 26 -20 35 -25 27 -9 -14 -55 43 -54 67 1 9 -12 57 -27 106 -15 50 -36
117 -46 150 -10 33 -23 67 -29 75 -7 8 -13 22 -13 30 -2 36 -34 159 -51 196
-11 22 -27 67 -36 100 -9 32 -22 72 -28 89 -6 16 -10 40 -9 52 4 24 -16 58
-60 105 -16 18 -41 54 -54 80 -14 27 -30 48 -37 47 -7 -1 -25 3 -40 9 -39 16
-47 14 -17 -3 37 -21 21 -18 -54 10 -37 14 -72 25 -78 25 -21 0 5 -16 54 -34
25 -9 52 -24 58 -32 11 -12 6 -12 -31 1 -31 11 -44 12 -50 4 -5 -8 -25 -7 -75
4 l-69 16 30 -26 c17 -14 26 -23 20 -21 -12 5 -63 27 -85 37 -19 9 -93 7 -185
-4 -38 -5 -74 -7 -80 -5 -5 1 -19 2 -30 2 -11 -1 -39 8 -62 19 -23 11 -47 18
-52 14 -6 -3 -23 2 -38 11 l-28 16 30 -26 c21 -18 31 -22 37 -13 6 9 10 9 16
1 4 -6 18 -15 31 -19 18 -5 20 -9 10 -16 -20 -12 12 -12 45 1 15 5 28 6 31 0
5 -8 -17 -16 -90 -33 -19 -5 -19 -5 2 -12 12 -4 20 -12 17 -18 -2 -7 22 -24
53 -39 32 -16 54 -28 50 -28 -15 0 49 -49 77 -60 15 -5 42 -10 59 -10 18 0 42
-6 53 -14 11 -8 31 -16 44 -19 14 -3 -18 -3 -70 0 -52 2 -99 8 -105 12 -5 4
-29 13 -51 19 -23 7 -47 19 -54 27 -7 8 -19 15 -27 15 -8 0 -28 14 -45 30 -16
17 -31 30 -33 30 -9 0 -173 110 -215 144 -25 20 -49 36 -55 36 -5 0 -1 -8 11
-18z m359 -132 c8 -13 -5 -13 -25 0 -13 8 -13 10 2 10 9 0 20 -4 23 -10z m109
-81 c11 -13 25 -19 37 -16 10 3 17 1 13 -4 -10 -16 -43 -9 -71 16 -19 16 -23
24 -13 25 9 0 24 -9 34 -21z m-397 -165 c-3 -3 -12 -4 -19 -1 -8 3 -5 6 6 6
11 1 17 -2 13 -5z m319 -101 c35 -9 64 -20 64 -23 0 -7 -151 28 -159 36 -9 9
34 3 95 -13z m-743 -218 c-3 -9 -8 -14 -10 -11 -3 3 -2 9 2 15 9 16 15 13 8
-4z m312 -47 c-4 -21 -25 -41 -34 -33 -4 5 27 55 34 55 2 0 2 -10 0 -22z
m-245 8 c0 -2 -8 -10 -17 -17 -16 -13 -17 -12 -4 4 13 16 21 21 21 13z m291
-28 c1 -7 1 -16 0 -20 0 -5 6 -8 14 -8 18 0 20 -43 4 -88 -18 -52 -52 -67
-149 -65 -47 0 -96 5 -109 10 l-23 9 23 15 c37 24 88 39 131 39 39 0 39 0 33
34 -4 20 -2 36 4 40 6 4 11 2 11 -5 0 -15 29 -49 42 -49 13 0 9 88 -4 93 -8 3
-6 6 5 6 9 1 18 -5 18 -11z m243 -53 c12 -12 20 -14 36 -5 11 6 21 16 21 23 2
23 27 -88 28 -125 1 -46 -32 -73 -79 -66 -17 3 -33 1 -36 -3 -2 -5 -11 -6 -19
-2 -12 4 -10 11 10 35 18 22 24 36 19 52 -4 11 -6 38 -5 58 1 21 -3 47 -9 58
-6 11 -8 26 -4 32 5 8 10 2 15 -15 4 -14 14 -34 23 -42z m-636 -16 c-10 -7
-10 -9 0 -9 7 0 17 12 23 28 8 21 12 24 19 12 11 -20 1 -70 -14 -70 -7 0 -21
6 -32 14 -16 13 -17 18 -6 35 6 12 13 29 13 38 1 10 4 5 6 -11 3 -17 -1 -32
-9 -37z m580 -22 c-1 -18 1 -37 4 -42 11 -18 -10 -52 -45 -73 -34 -20 -35 -20
-40 -1 -4 15 0 19 23 19 16 0 32 6 37 13 11 17 12 126 2 133 -5 3 -9 10 -9 17
0 6 7 2 15 -10 9 -12 15 -37 13 -56z m-328 48 c14 -16 10 -18 -14 -9 -9 3 -16
10 -16 15 0 14 16 11 30 -6z m1130 -35 c12 -8 12 -10 -5 -7 -24 4 -65 29 -65
40 0 7 38 -10 70 -33z m-1445 -9 c-3 -6 -14 -11 -23 -11 -15 1 -15 2 2 15 21
16 32 13 21 -4z m147 -23 c-7 -7 -12 -8 -12 -2 0 14 12 26 19 19 2 -3 -1 -11
-7 -17z m1403 -18 c3 -5 1 -10 -4 -10 -6 0 -11 5 -11 10 0 6 2 10 4 10 3 0 8
-4 11 -10z m-1368 -16 c-3 -3 -12 -4 -19 -1 -8 3 -5 6 6 6 11 1 17 -2 13 -5z
m-362 -14 c-3 -5 -11 -10 -16 -10 -6 0 -7 5 -4 10 3 6 11 10 16 10 6 0 7 -4 4
-10z m-201 -62 c-23 -25 -25 -30 -9 -24 16 6 18 5 8 -5 -10 -10 -16 -10 -25
-1 -9 9 -6 17 13 36 36 36 47 31 13 -6z m330 -10 c-3 -13 -13 -27 -20 -31 -8
-4 -14 -13 -14 -20 -1 -7 -21 -27 -45 -45 -25 -18 -45 -38 -45 -44 0 -6 12 -1
27 13 14 13 22 17 18 9 -5 -8 -23 -26 -40 -40 -16 -14 -53 -46 -81 -72 -28
-27 -56 -48 -62 -48 -7 0 -12 -7 -12 -15 0 -9 -6 -26 -14 -38 -8 -12 -17 -33
-21 -47 -7 -23 -7 -24 10 -10 17 13 18 13 10 0 -4 -8 -17 -26 -29 -39 l-21
-23 25 7 c24 7 24 7 9 -11 -8 -11 -17 -39 -18 -64 -3 -50 -23 -74 -58 -67 -12
2 -24 1 -25 -3 -2 -4 -17 -5 -35 -3 -32 5 -32 5 -16 32 15 23 12 21 -20 -8
-20 -19 -37 -31 -37 -27 0 5 -7 3 -15 -4 -8 -7 -15 -9 -15 -4 0 4 29 36 65 71
36 35 65 70 65 78 0 8 6 14 13 13 6 -2 11 3 9 10 -1 6 4 12 12 12 19 0 60 57
47 64 -5 4 -16 -2 -23 -12 -7 -10 -20 -22 -28 -27 -8 -5 2 10 23 33 20 23 37
49 37 58 0 8 4 13 9 10 5 -3 24 12 42 34 19 22 40 38 46 35 7 -2 12 -1 11 3
-4 11 33 62 44 62 6 0 4 -8 -3 -17 -13 -16 -12 -17 3 -5 9 8 15 19 12 26 -2 6
11 27 30 45 20 19 32 39 29 45 -3 6 -3 8 1 5 3 -4 28 13 54 37 26 24 48 44 50
44 2 0 0 -10 -4 -22z m-114 -28 c0 -5 -4 -10 -10 -10 -5 0 -10 5 -10 10 0 6 5
10 10 10 6 0 10 -4 10 -10z m-32 -41 c-7 -12 -17 -29 -23 -38 -26 -44 -58 -75
-78 -76 -13 -1 -22 -8 -21 -17 1 -9 -27 -44 -62 -79 -35 -34 -64 -67 -64 -73
0 -10 -14 -27 -101 -123 -37 -41 -75 -71 -53 -42 6 8 33 43 60 79 27 36 80
103 119 150 39 47 77 100 84 118 7 17 17 29 22 26 5 -3 9 -1 9 5 0 17 62 72
76 67 7 -3 18 2 24 10 18 21 23 17 8 -7z m184 -21 c-8 -8 -9 -4 -5 13 4 13 8
18 11 10 2 -7 -1 -18 -6 -23z m-282 -17 c0 -5 -7 -12 -16 -15 -14 -5 -15 -4
-4 9 14 17 20 19 20 6z m1780 5 c0 -10 -31 -75 -38 -80 -4 -2 -14 9 -21 26
-12 25 -11 32 0 39 8 5 20 7 27 4 6 -2 12 0 12 5 0 6 5 10 10 10 6 0 10 -2 10
-4z m18 -56 c-14 -22 -24 -19 -15 5 4 8 11 15 17 15 6 0 6 -7 -2 -20z m-2054
1 c3 -5 -1 -14 -8 -20 -12 -10 -14 -9 -11 6 2 10 4 19 4 21 2 5 10 2 15 -7z
m447 -27 c-11 -15 -21 -23 -21 -18 0 14 31 56 37 50 3 -3 -4 -17 -16 -32z
m1659 2 c0 -8 -4 -18 -10 -21 -5 -3 -10 3 -10 14 0 12 5 21 10 21 6 0 10 -6
10 -14z m-1950 -16 c0 -5 -5 -10 -11 -10 -5 0 -7 5 -4 10 3 6 8 10 11 10 2 0
4 -4 4 -10z m1992 -32 c-7 -7 -12 -8 -12 -2 0 6 3 14 7 17 3 4 9 5 12 2 2 -3
-1 -11 -7 -17z m58 -5 c0 -5 -11 -13 -25 -20 -27 -12 -33 -5 -13 15 13 13 38
16 38 5z m49 -72 c0 -14 -1 -14 -6 -1 -3 8 -10 24 -15 35 -9 20 -9 20 6 1 9
-11 16 -27 15 -35z m62 17 c-17 -17 -34 -29 -37 -25 -7 6 45 56 60 57 4 0 -6
-14 -23 -32z m-2391 -69 c0 -11 -4 -18 -10 -14 -5 3 -7 12 -3 20 7 21 13 19
13 -6z m90 -43 c-17 -25 -36 -46 -42 -46 -7 0 -3 10 8 23 11 12 28 35 38 50
10 16 20 27 22 24 3 -3 -9 -25 -26 -51z m970 30 c0 -3 -4 -8 -10 -11 -5 -3
-10 -1 -10 4 0 6 5 11 10 11 6 0 10 -2 10 -4z m-1079 -38 c-4 -12 -14 -24 -20
-26 -8 -3 -7 5 4 22 21 32 27 33 16 4z m1076 -55 c-14 -14 -19 -15 -29 -4 -11
10 -10 11 3 6 10 -4 19 0 23 11 4 9 9 14 13 10 4 -3 -1 -14 -10 -23z m55 -5
c-12 -12 -35 -1 -27 12 3 5 13 6 21 3 10 -4 12 -9 6 -15z m-1242 8 c0 -2 -7
-7 -16 -10 -8 -3 -12 -2 -9 4 6 10 25 14 25 6z m233 -30 c-15 -19 -35 -37 -43
-41 -8 -3 3 12 25 34 48 50 57 53 18 7z m1047 24 c0 -5 -5 -10 -11 -10 -5 0
-7 5 -4 10 3 6 8 10 11 10 2 0 4 -4 4 -10z m1259 -24 c31 -16 91 -80 91 -97 0
-6 -16 3 -35 20 -31 27 -43 31 -95 31 -66 0 -98 -11 -151 -52 -39 -29 -79 -40
-86 -22 -6 18 69 96 111 115 49 22 127 24 165 5z m-1409 -46 c-14 -4 -47 -14
-73 -21 -27 -6 -65 -23 -85 -37 -36 -24 -36 -24 -17 -2 29 34 114 70 160 69
35 0 37 -2 15 -9z m108 -36 c36 -25 26 -34 -39 -34 -59 0 -134 -13 -174 -30
-11 -5 -36 -12 -55 -15 l-35 -7 34 36 c19 19 53 42 75 50 57 20 165 20 194 0z
m-1313 -73 c2 -29 9 -59 16 -67 8 -10 8 -14 0 -14 -6 0 -11 -7 -11 -15 0 -8 6
-15 14 -15 21 0 30 -20 17 -33 -8 -8 -15 -6 -25 8 -13 18 -14 18 -26 -4 -6
-13 -10 -32 -7 -42 3 -10 1 -19 -3 -19 -11 0 -18 162 -8 176 5 6 6 19 2 28 -4
9 -1 16 6 16 9 0 7 6 -4 19 -10 11 -15 25 -11 31 14 23 36 -16 40 -69z m1219
-16 c-4 -8 -8 -15 -10 -15 -2 0 -4 7 -4 15 0 8 4 15 10 15 5 0 7 -7 4 -15z
m-879 -39 c17 -12 14 -15 -31 -32 -27 -10 -52 -23 -56 -28 -4 -6 -8 4 -8 22 0
17 3 32 8 33 22 2 45 8 50 13 8 9 16 7 37 -8z m-281 -47 c-8 -13 -24 -1 -24
18 0 13 3 13 15 3 8 -7 12 -16 9 -21z m2519 -68 c27 -82 28 -97 18 -132 -12
-40 -68 -89 -102 -89 -8 0 -26 -12 -40 -26 -13 -14 -36 -32 -51 -40 -29 -15
-78 -19 -78 -7 0 4 29 35 64 68 42 40 71 77 86 113 12 28 29 52 36 52 20 0 17
40 -6 78 -11 18 -20 39 -20 48 0 15 36 35 54 30 6 -1 23 -44 39 -95z m-2143
66 c0 -11 -63 -37 -92 -37 -6 0 -19 -7 -29 -16 -10 -9 -23 -13 -28 -9 -18 10
7 45 42 60 41 18 107 19 107 2z m33 -67 c-3 -12 -8 -19 -11 -16 -5 6 5 36 12
36 2 0 2 -9 -1 -20z m1876 -115 c0 -11 -10 -33 -23 -48 l-23 -28 -1 53 c-1 29
1 62 5 72 5 18 7 18 24 -5 10 -13 18 -33 18 -44z m241 -130 c0 -14 -30 -62
-48 -78 -28 -25 -39 -4 -16 31 24 37 64 66 64 47z m-128 -87 c20 4 30 -11 22
-31 -5 -13 -10 -13 -40 5 -19 11 -31 24 -28 29 3 5 11 6 17 2 7 -4 19 -6 29
-5z m-862 -498 c0 -5 -5 -10 -11 -10 -5 0 -7 5 -4 10 3 6 8 10 11 10 2 0 4 -4
4 -10z m-7 -26 c-7 -3 -9 -13 -6 -22 4 -15 3 -15 -6 -2 -15 22 -14 30 7 29 9
0 12 -3 5 -5z m1024 -586 c-3 -8 -6 -5 -6 6 -1 11 2 17 5 13 3 -3 4 -12 1 -19z"/>
<path d="M2458 3583 c-28 -7 -21 -23 10 -23 39 0 73 11 66 21 -5 9 -45 10 -76
2z"/>
<path d="M2866 3604 c-3 -8 -3 -26 0 -40 5 -21 9 -22 28 -12 11 6 22 12 24 13
6 5 -30 55 -38 55 -4 0 -11 -7 -14 -16z"/>
<path d="M1704 2988 l-19 -23 23 19 c21 18 27 26 19 26 -2 0 -12 -10 -23 -22z"/>
<path d="M1876 3348 c-9 -12 -16 -26 -16 -30 0 -11 39 14 44 29 9 23 -12 24
-28 1z"/>
<path d="M1948 4483 c6 -2 18 -2 25 0 6 3 1 5 -13 5 -14 0 -19 -2 -12 -5z"/>
<path d="M2420 4480 c0 -13 18 -22 24 -11 3 5 -1 11 -9 15 -8 3 -15 1 -15 -4z"/>
<path d="M1990 4450 c0 -5 5 -10 10 -10 6 0 10 5 10 10 0 6 -4 10 -10 10 -5 0
-10 -4 -10 -10z"/>
<path d="M2190 4456 c0 -5 79 -46 88 -46 4 0 -11 12 -33 25 -38 24 -55 30 -55
21z"/>
<path d="M2469 4426 c14 -14 29 -26 34 -26 13 0 -12 29 -37 42 -19 10 -18 8 3
-16z"/>
<path d="M2388 4418 c5 -5 16 -8 23 -6 8 3 3 7 -10 11 -17 4 -21 3 -13 -5z"/>
<path d="M2146 4402 c-6 -11 30 -52 46 -52 6 0 -1 9 -16 21 -14 11 -24 25 -21
30 4 5 4 9 1 9 -3 0 -7 -4 -10 -8z"/>
<path d="M2695 4390 c10 -11 20 -20 23 -20 3 0 -3 9 -13 20 -10 11 -20 20 -23
20 -3 0 3 -9 13 -20z"/>
<path d="M2320 4370 c0 -5 5 -10 11 -10 5 0 7 5 4 10 -3 6 -8 10 -11 10 -2 0
-4 -4 -4 -10z"/>
<path d="M2245 4360 c3 -5 11 -10 16 -10 6 0 7 5 4 10 -3 6 -11 10 -16 10 -6
0 -7 -4 -4 -10z"/>
<path d="M2595 4350 c3 -5 15 -10 26 -10 11 0 17 5 14 10 -3 6 -15 10 -26 10
-11 0 -17 -4 -14 -10z"/>
<path d="M2760 4343 c0 -5 9 -14 20 -21 11 -7 20 -8 20 -2 0 5 -9 14 -20 20
-11 6 -20 7 -20 3z"/>
<path d="M2736 4312 c45 -33 84 -55 84 -48 0 7 -105 76 -115 76 -4 0 10 -13
31 -28z"/>
<path d="M2202 4310 c7 -10 14 -18 15 -16 6 6 -9 36 -18 36 -5 0 -4 -9 3 -20z"/>
<path d="M1429 4278 c-22 -9 -39 -22 -39 -28 0 -13 129 -13 150 0 12 8 11 10
-7 10 -12 0 -25 5 -28 10 -7 11 13 14 57 11 14 -1 29 3 33 8 10 17 -123 9
-166 -11z"/>
<path d="M2420 4236 c0 -4 7 -14 15 -22 8 -9 15 -11 15 -6 0 5 -7 15 -15 22
-8 7 -15 9 -15 6z"/>
<path d="M2205 4210 c-3 -6 1 -7 9 -4 18 7 21 14 7 14 -6 0 -13 -4 -16 -10z"/>
<path d="M946 4188 c3 -4 17 -8 31 -8 15 0 23 3 20 7 -10 9 -56 10 -51 1z"/>
<path d="M2445 4159 c22 -22 54 -48 70 -56 17 -9 34 -21 38 -27 6 -7 6 -4 3 8
-5 14 -2 17 10 12 15 -6 15 -4 3 10 -8 10 -15 12 -17 5 -2 -6 -19 5 -39 24
-19 18 -41 31 -48 29 -7 -3 -18 4 -25 15 -6 12 -16 21 -22 21 -7 0 6 -18 27
-41z m60 -29 c3 -5 2 -10 -4 -10 -5 0 -13 5 -16 10 -3 6 -2 10 4 10 5 0 13 -4
16 -10z"/>
<path d="M874 4178 c-10 -16 18 -28 54 -22 21 4 32 2 32 -5 0 -7 3 -10 8 -8 4
3 21 -1 37 -9 30 -14 30 -14 -15 -8 -53 7 -45 -6 17 -26 31 -10 49 -10 74 -1
17 6 43 11 55 11 13 0 24 4 24 9 0 5 -10 7 -21 4 -14 -4 -25 0 -31 11 -5 9
-20 16 -33 16 -14 0 -25 4 -25 8 0 5 -21 10 -46 11 -26 0 -50 4 -55 7 -17 10
-69 12 -75 2z"/>
<path d="M2105 4150 c-8 -13 5 -13 25 0 13 8 13 10 -2 10 -9 0 -20 -4 -23 -10z"/>
<path d="M2035 4140 c3 -5 8 -10 11 -10 2 0 4 5 4 10 0 6 -5 10 -11 10 -5 0
-7 -4 -4 -10z"/>
<path d="M2155 4080 c-8 -13 5 -13 25 0 13 8 13 10 -2 10 -9 0 -20 -4 -23 -10z"/>
<path d="M2060 4062 c0 -4 16 -6 35 -4 19 2 35 6 35 8 0 2 -16 4 -35 4 -19 0
-35 -4 -35 -8z"/>
<path d="M915 4047 c-26 -29 -25 -36 4 -52 34 -17 53 -20 31 -4 -12 9 -12 10
3 5 10 -3 26 -6 34 -6 13 0 13 -3 3 -15 -8 -9 -9 -15 -2 -15 6 0 14 4 17 10 4
6 12 6 24 -2 11 -7 29 -8 47 -3 50 14 65 13 53 -1 -6 -7 -32 -16 -57 -20 -64
-9 -91 -26 -32 -20 99 11 115 15 132 36 10 12 18 26 18 31 0 11 -17 12 -24 1
-4 -7 -44 -8 -131 -3 l-30 2 25 15 25 15 -29 -4 c-27 -5 -86 20 -86 36 0 11
-14 8 -25 -6z"/>
<path d="M880 3952 c0 -2 12 -14 26 -27 l27 -25 -44 0 c-33 0 -40 -3 -29 -10
13 -9 13 -12 -3 -24 -18 -14 -18 -14 0 -19 16 -4 16 -5 1 -6 -37 -2 -16 -19
33 -25 35 -5 56 -3 67 6 10 8 13 9 9 1 -4 -6 -1 -14 5 -16 18 -8 -10 -27 -39
-27 -13 0 -23 -5 -23 -11 0 -7 10 -9 24 -7 16 3 27 0 31 -10 4 -12 8 -12 21
-1 14 12 14 14 -3 20 -14 6 -11 8 13 8 29 1 58 23 79 60 6 11 4 13 -10 8 -26
-11 -138 3 -160 19 -24 18 -16 25 34 28 49 2 62 13 27 22 -21 5 -24 9 -16 24
9 16 5 18 -30 16 -22 0 -40 -2 -40 -4z"/>
<path d="M1740 3860 c-12 -8 -12 -10 5 -10 11 0 27 5 35 10 12 8 12 10 -5 10
-11 0 -27 -5 -35 -10z"/>
<path d="M1075 3780 c-3 -5 3 -10 15 -10 12 0 18 5 15 10 -3 6 -10 10 -15 10
-5 0 -12 -4 -15 -10z"/>
<path d="M1035 3760 c-3 -6 1 -7 9 -4 18 7 21 14 7 14 -6 0 -13 -4 -16 -10z"/>
<path d="M981 3716 c-7 -8 -8 -17 -3 -20 6 -3 15 1 21 8 7 8 8 17 3 20 -6 3
-15 -1 -21 -8z"/>
<path d="M1914 3715 c-10 -8 -14 -14 -9 -14 6 0 19 6 29 14 11 8 15 15 10 15
-6 0 -19 -7 -30 -15z"/>
<path d="M1844 3675 c-10 -8 -14 -15 -8 -15 5 0 19 7 30 15 10 8 14 15 8 15
-5 0 -19 -7 -30 -15z"/>
<path d="M2060 3679 c0 -5 5 -7 10 -4 6 3 10 8 10 11 0 2 -4 4 -10 4 -5 0 -10
-5 -10 -11z"/>
<path d="M1876 3655 c-20 -14 -39 -25 -42 -25 -3 0 -22 -11 -42 -25 -20 -14
-34 -25 -30 -25 15 0 168 88 168 96 0 10 -20 2 -54 -21z"/>
<path d="M1694 3656 c-10 -8 -17 -17 -14 -19 3 -3 14 1 24 9 11 7 17 16 15 19
-3 3 -14 -2 -25 -9z"/>
<path d="M1730 3590 c-13 -11 -19 -20 -13 -20 5 0 18 9 28 20 10 11 16 20 13
20 -3 0 -15 -9 -28 -20z"/>
<path d="M1318 3436 c-21 -5 -38 -14 -38 -20 0 -6 -20 -41 -45 -77 -54 -79
-53 -103 3 -84 39 14 52 32 31 46 -7 4 -10 11 -6 16 4 4 17 1 29 -6 17 -11 23
-10 34 3 8 9 9 11 2 6 -7 -6 -15 -10 -20 -10 -11 0 3 33 21 48 13 11 13 12 1
6 -8 -4 -5 3 8 15 12 12 22 26 22 31 0 6 6 10 14 10 8 0 17 4 20 9 9 14 -35
18 -76 7z"/>
<path d="M1389 3403 c-13 -17 -13 -17 6 -3 11 8 22 16 24 17 2 2 0 3 -6 3 -6
0 -17 -8 -24 -17z"/>
<path d="M1217 3234 c-16 -9 -27 -17 -25 -20 6 -6 58 20 58 29 0 9 0 9 -33 -9z"/>
<path d="M1394 3162 c-6 -4 -14 -16 -18 -27 -7 -19 -5 -18 15 2 22 22 24 39 3
25z"/>
<path d="M1160 3125 c-28 -21 -30 -25 -14 -25 11 0 31 11 44 25 13 14 19 25
14 25 -6 0 -25 -11 -44 -25z"/>
<path d="M1335 3132 c-44 -43 -57 -64 -46 -75 8 -8 11 -8 11 0 0 6 14 26 30
43 33 36 37 63 5 32z"/>
<path d="M1120 3055 c-7 -8 -17 -15 -22 -15 -14 0 -68 -40 -68 -50 0 -25 82
26 101 62 12 22 6 23 -11 3z"/>
<path d="M1195 2989 c-49 -48 -56 -59 -39 -59 12 0 27 -7 34 -15 22 -27 45
-17 68 30 12 25 25 45 29 45 5 0 9 12 10 27 l1 27 -20 -24 -20 -25 6 28 c4 15
3 27 -1 26 -5 0 -35 -27 -68 -60z"/>
<path d="M4052 2780 c0 -14 2 -19 5 -12 2 6 2 18 0 25 -3 6 -5 1 -5 -13z"/>
<path d="M1870 2541 c-66 -35 -80 -41 -80 -32 0 6 -13 6 -37 -1 -20 -5 -50 -7
-66 -4 -24 5 -28 3 -23 -10 3 -9 8 -27 11 -40 3 -13 7 -35 10 -49 13 -63 147
1 194 93 28 55 27 62 -9 43z"/>
<path d="M2187 2229 l-36 -42 -68 17 c-83 20 -148 23 -166 8 -7 -6 -39 -13
-70 -14 -31 -2 -57 -6 -57 -9 0 -19 66 -92 91 -101 21 -7 29 -16 29 -34 0 -13
5 -24 10 -24 6 0 10 7 10 16 0 8 4 13 9 10 7 -5 36 3 91 22 8 4 50 6 92 6 91
1 113 16 129 86 8 35 6 47 -9 72 l-19 30 -36 -43z"/>
<path d="M2010 1869 c-14 -6 -42 -8 -64 -6 -28 4 -35 2 -27 -6 18 -18 13 -28
-13 -21 -20 5 -25 0 -35 -27 -6 -17 -11 -57 -11 -87 l0 -54 33 5 c79 14 97 20
97 33 0 8 7 14 15 14 8 0 15 7 15 15 0 10 10 15 30 15 17 0 30 5 30 10 0 6 11
10 24 10 37 0 76 -18 76 -35 0 -11 11 -15 45 -15 31 0 47 -5 55 -17 10 -15 11
-15 6 -2 -6 21 42 33 63 16 10 -9 17 -7 28 8 13 17 15 17 10 2 -6 -16 -4 -16
23 -2 34 18 72 19 87 4 17 -17 31 -3 25 26 -3 20 -7 23 -18 14 -8 -6 -14 -7
-14 -3 0 16 -39 34 -83 39 -23 3 -90 20 -149 37 -107 31 -108 31 -130 12 -12
-10 -18 -13 -14 -6 11 19 -1 14 -24 -10 -15 -16 -19 -18 -15 -6 5 13 2 15 -17
11 -23 -6 -23 -6 -4 15 19 22 19 22 0 21 -10 0 -30 -5 -44 -10z"/>
<path d="M2737 1733 c-3 -5 -1 -17 4 -28 4 -11 8 -15 9 -10 1 6 3 18 5 28 3
17 -10 24 -18 10z"/>
<path d="M2260 1670 c0 -5 -7 -10 -17 -10 -9 0 -38 -14 -65 -31 -48 -31 -62
-47 -32 -35 9 3 12 2 9 -5 -4 -6 -14 -8 -22 -5 -8 3 -25 -1 -39 -10 -13 -9
-35 -14 -49 -12 -14 3 -25 2 -25 -2 0 -10 -39 -20 -55 -13 -8 2 -12 10 -9 17
3 7 -4 21 -16 31 -11 10 -20 24 -20 32 0 7 -4 13 -10 13 -14 0 -2 -80 22 -143
15 -40 70 -61 123 -48 75 19 110 24 148 22 21 -2 44 3 52 9 8 6 19 9 25 5 5
-3 10 -2 10 3 0 6 11 13 24 16 28 7 39 46 18 65 -10 10 -17 10 -25 2 -17 -17
-31 -13 -17 4 18 22 4 31 -16 11 -11 -12 -20 -14 -28 -6 -7 5 -16 7 -19 4 -3
-4 -14 -4 -23 0 -15 6 -13 10 13 29 54 40 75 67 53 67 -5 0 -10 -4 -10 -10z"/>
<path d="M4578 633 c7 -3 16 -2 19 1 4 3 -2 6 -13 5 -11 0 -14 -3 -6 -6z"/>
<path d="M2792 411 l-23 -17 26 -12 c32 -15 45 -9 38 18 -8 29 -15 31 -41 11z"/>
</g>
</svg>
